<svg xmlns="http://www.w3.org/2000/svg" viewBox="24 2704 1156 650"><defs><style>.a,.e{fill:#fff}.a{stroke:#95989a}.b{clip-path:url(#a)}.c{fill:#ff6c39}.d{fill:#45b6c9}.f,.g{fill:none}.g{stroke:#ff6c39;stroke-miterlimit:10;stroke-width:4.668px}</style><clipPath id="a"><path class="a" transform="translate(2222 3821)" d="M0 0h1156v650H0z"/></clipPath></defs><g class="b"><path class="c" d="M931.571 2813.896l-56.946-58.439 8.8-8.754 57.246 58.5zm50.753 88.455L856.37 2773.138l9.1-8.689 126.018 128.913zm-189.433-67.001l56.982 58.368-8.996 8.782-56.982-58.368zm38.588 76.252l-8.984 8.783-56.976-58.28 8.984-8.783zm-20.636-94.078l56.956 58.318-8.988 8.779-56.956-58.319zm36.338-35.368l126.167 129.236-8.996 8.783-126.168-129.236zm-18.23 17.678l126.117 129.133-8.989 8.778-126.116-129.133z"/><path class="d" d="M1052.07 2878.587l-170.367-174.591-111.02 108.58-52.574 2.4-1.612 3.1-92.547 170.9 262.737 141.93 92.184-170.669 1.612-3.1-3.219-5.4zm-167.923 230.762l-70.79-131.993 149.214-12.81-78.424 144.8zm-205.505-194.747l3.785-7.332 39.34-73 71.09 132.057-149.515 12.745zm232.367 41.9l-14.685 1.206-9.757-9.954c.728-.468 1.158-1 1.887-1.473a18.863 18.863 0 0 0 .426-26.561 27.206 27.206 0 0 0-4.572-3.5 18.456 18.456 0 0 0-21.988 3.072 18.862 18.862 0 0 0-.426 26.561c.3.065.233.365.533.429l-14.353 14.135 1.3 1.223-3.555.484-16.141-16.669 45.374-44.413 45.415 46.533zm-54.167 3.941l17.164-16.975 14.07 14.652-31 2.688zm9.444-18.963a13.58 13.58 0 0 1-3.7-8.956 12.84 12.84 0 0 1 3.81-8.894 12.646 12.646 0 0 1 14.881-2.106 11.3 11.3 0 0 1 2.97 2.212 13.578 13.578 0 0 1 3.7 8.956 11.578 11.578 0 0 1-3.81 8.895 8.084 8.084 0 0 1-1.887 1.472l-8.222-8.367-7.207 7.217c-.297-.064-.234-.364-.53-.429zm-66.654 36.978l69.043 128.479-214.763-115.853zm81.668-256.673l152.922 156.695-75.536 73.621-28.109 2.374 7.143-6.918-63.159-64.489-63.63 62.092 17.978 18.321-22.393 2.044-60.115-111.806zm-140.845 120.3l-7.99-15.215 24.724-1.226z"/><path class="e" d="M353.556 2953.258l-189.921 155.754 190.948 232.984 190.22-155.691z"/><path class="d" d="M556.442 3187.576l-201.617-245.958-202.895 166.425 201.619 245.953zm-23.645-2.3l-176.945 145.079-180.51-220.372 177.31-145.318z"/><path class="c" d="M496.15 3176.607l-141.663 116.19-11.852-14.451 141.663-116.19zm-25.044-30.91l-141.758 116.172-11.85-14.46 141.758-116.172zm-25.419-30.725l-141.663 116.19-11.852-14.451 141.663-116.19zm-25.239-30.849l-141.663 116.19-11.852-14.451 141.663-116.19zm-23.971-31.895l-143.085 117.355-11.852-14.45 143.085-117.355zm-25.586-30.71l-142.61 116.967-11.853-14.45 142.611-116.967z"/><path class="d" d="M278.784 2739.814l32.777 204.654 168.919-27.039-32.777-204.654zm189.217 168.639l-147.459 23.538-29.579-183.265 147.464-23.538z"/><path class="c" d="M403.774 2887.945l.194-.9c.389-1.8.389-1.8-.484-3.555l-.468-.728a6.7 6.7 0 0 1-.574-1.693 4.885 4.885 0 0 1 1.573-4.362l.794-.769c1.523-1.237 1.523-1.237 1.677-3.4l.194-.9a5.662 5.662 0 0 1 4.4-4.377l.963-.1c1.928-.21 1.928-.21 3.514-1.747l.729-.469a5.392 5.392 0 0 1 6.145-.863l.834.494c1.667.989 1.667.989 3.958.545l.963-.105a4.709 4.709 0 0 1 5.366 2.732l.469.728a8.338 8.338 0 0 0 .873 1.758 60.273 60.273 0 0 0 7.388-10.938c-4.4-2.836-11.161-4.928-20.106-5.612-8.581-.92-16.068-2.542-16.068-2.542-1.134-.559-1.437-7.837-1.437-7.837l-7.941.473c-.234-.365-1.632-6.938-1.632-6.938 6-3.089 5.238-15.483 5.238-15.483 4.363 1.573 5.307-8.571 5.307-8.571 2.453-14.206-4.252-12.21-4.252-12.21.645-10.208-2.788-24.75-2.788-24.75-7.45-26.386-43.626-15.728-48.359-5.465-16.259 5.569-4.056 31.732-4.056 31.732l3.6 7.992c-5.062 4.548-.555 8.346.5 13.593 1.5 7.537 6.045 5.386 6.045 5.386 2.26 12.719 10.671 12.975 10.671 12.975 2.4 7.733 1.267 7.174 1.267 7.174l-7.108.967a50.5 50.5 0 0 1 .6 7.343c-6.2 3.987-7.458 4.028-13.653 8.015-11.66 7.507-16.294 11.519-16.294 11.519-.364.234-.794.768-1.158 1a69.616 69.616 0 0 0 51.453 18.679l16.572-2.679a53.211 53.211 0 0 0 6.105-2.125 6.454 6.454 0 0 1-.81-2.057 2.6 2.6 0 0 1-.204-1.93z"/><path class="c" d="M436.226 2877.107a1.127 1.127 0 0 0-.1-.963 3.242 3.242 0 0 0-1.707-2.252c-3.1-1.612-2.566-1.183-4.143-4.033a3.359 3.359 0 0 0-3.4-1.677c-3.254.549-2.656.678-5.756-.934-.534-.429-1.5-.325-2.1-.454a3.055 3.055 0 0 0-1.758.874c-2.381 2.306-2.016 2.071-5.271 2.62a3.691 3.691 0 0 0-2.746 2.54c-.414 3.36-.285 2.761-2.666 5.066a2.979 2.979 0 0 0-.884 2.631c-.065.3.17.664.4 1.028 1.577 2.851 1.408 2.187.993 5.546a1.126 1.126 0 0 0 .1.963 3.243 3.243 0 0 0 1.707 2.251c3.1 1.612 2.63.884 4.143 4.034a3.362 3.362 0 0 0 3.4 1.677c3.254-.549 2.655-.679 5.756.934.533.429 1.5.325 2.1.454a3.057 3.057 0 0 0 1.758-.874c2.381-2.306 1.717-2.137 5.271-2.621a3.691 3.691 0 0 0 2.746-2.54c.414-3.36.285-2.76 2.666-5.066a2.979 2.979 0 0 0 .884-2.631c.065-.3-.17-.664-.4-1.027-1.577-2.851-1.408-2.186-.993-5.546zm-15.59 12.613l-7.372-5.047 2.212-2.97 4.4 2.836 6.765-9.509 2.97 2.211z"/><path class="e" d="M753.744 3323.374l-319.885-26.31 34.099-414.597 319.885 26.31z"/><path class="d" d="M705.754 2880.656l2.378-28.333-21.549-1.848s-19.552-58.8-42.664-60.673l-19.687-1.759c-23.111-1.875-51.943 53.022-51.943 53.022l-20.347-1.59-2.378 28.333-85.3-7.2-37.722 454.654 341.023 28.14 37.719-454.655zm-73.412-73.61c12.968.93 22.4 12.382 21.472 25.351s-12.382 22.4-25.35 21.472-22.4-12.382-21.472-25.351c1.295-13.203 12.45-22.701 25.35-21.472zm113.57 451.074l-48.438 36.85-12-1.035 3.568-42.5 56.965 4.822zm1.348-16.326l-71.132-6.012-4.823 56.965-227.327-18.86 32.073-383.756 71.132 6.012-1.189 14.166 156.494 12.913 1.19-14.166 71.132 6.012-27.55 326.728z"/><path class="d" d="M485.458 2947.984l-4.822 56.965 56.965 4.822 4.822-56.965zm42.175 49.907l-35.116-2.908 2.908-35.117 35.116 2.908zm-50.265 49.622l-4.826 56.966 56.965 4.822 4.823-56.965zm42.174 49.907l-35.117-2.908 2.908-35.116 35.117 2.907zm-49.375 35.392l-4.825 56.965 56.967 4.819 4.822-56.965zm42.175 49.91l-35.117-2.908 2.907-35.117 35.117 2.908z"/><path class="f" d="M569.567 2969.351l156.497 12.914"/><path class="c" d="M556.465 2953.839l184.843 15.203-1.181 14.36-184.843-15.203z"/><path class="f" d="M567.188 2997.685l156.433 13.213"/><path class="c" d="M552.855 2996.649l184.842 15.203-1.181 14.358-184.842-15.202z"/><path class="f" d="M561.476 3068.882l156.196 12.849"/><path class="c" d="M548.383 3053.344l184.842 15.203-1.181 14.36-184.842-15.203z"/><path class="f" d="M549.553 3096.4l50.781 4.422"/><path class="c" d="M544.857 3095.973l60.189 4.95-1.181 14.36-60.189-4.95z"/><path class="f" d="M554.275 3154.18l170.663 14.103"/><path class="c" d="M541.245 3138.671l199.204 16.384-1.181 14.36-199.204-16.384z"/><path class="f" d="M551.896 3182.514l127.796 10.767"/><path class="c" d="M537.761 3181.455l156.43 12.866-1.182 14.359-156.429-12.866z"/><path class="g" d="M498.758 2969.644l15.539 18.514 35.692-29.991m-58.577 111.459l15.8 18.571 35.748-30.253"/><path class="c" d="M731.836 3120.547l-33.071.671.672 33.071 155 147.11 30.253-31.07z"/></g></svg>