<?xml version="1.0" encoding="UTF-8" standalone="no"?>
<!-- Created with Inkscape (http://www.inkscape.org/) -->

<svg
   xmlns:dc="http://purl.org/dc/elements/1.1/"
   xmlns:cc="http://creativecommons.org/ns#"
   xmlns:rdf="http://www.w3.org/1999/02/22-rdf-syntax-ns#"
   xmlns:svg="http://www.w3.org/2000/svg"
   xmlns="http://www.w3.org/2000/svg"
   xmlns:xlink="http://www.w3.org/1999/xlink"
   xmlns:sodipodi="http://sodipodi.sourceforge.net/DTD/sodipodi-0.dtd"
   xmlns:inkscape="http://www.inkscape.org/namespaces/inkscape"
   version="1.1"
   id="svg2"
   width="600"
   height="600"
   viewBox="0 0 600 600"
   sodipodi:docname="photocall_gift_party_accesories_beards-photobooth.svg"
   inkscape:version="0.92.1 r15371">
  <metadata
     id="metadata8">
    <rdf:RDF>
      <cc:Work
         rdf:about="">
        <dc:format>image/svg+xml</dc:format>
        <dc:type
           rdf:resource="http://purl.org/dc/dcmitype/StillImage" />
        <dc:title></dc:title>
      </cc:Work>
    </rdf:RDF>
  </metadata>
  <defs
     id="defs6">
    <linearGradient
       inkscape:collect="always"
       id="linearGradient4507">
      <stop
         style="stop-color:#00f260;stop-opacity:1"
         offset="0"
         id="stop4503" />
      <stop
         style="stop-color:#0575e6;stop-opacity:1"
         offset="1"
         id="stop4505" />
    </linearGradient>
    <linearGradient
       inkscape:collect="always"
       xlink:href="#linearGradient4507"
       id="linearGradient4509"
       x1="83.898308"
       y1="297.45761"
       x2="531.35596"
       y2="297.45761"
       gradientUnits="userSpaceOnUse" />
    <linearGradient
       inkscape:collect="always"
       xlink:href="#linearGradient4507"
       id="linearGradient4511"
       gradientUnits="userSpaceOnUse"
       x1="83.898308"
       y1="297.45761"
       x2="531.35596"
       y2="297.45761" />
    <linearGradient
       inkscape:collect="always"
       xlink:href="#linearGradient4507"
       id="linearGradient4513"
       gradientUnits="userSpaceOnUse"
       x1="83.898308"
       y1="297.45761"
       x2="531.35596"
       y2="297.45761" />
    <linearGradient
       inkscape:collect="always"
       xlink:href="#linearGradient4507"
       id="linearGradient4515"
       gradientUnits="userSpaceOnUse"
       x1="83.898308"
       y1="297.45761"
       x2="531.35596"
       y2="297.45761" />
    <linearGradient
       inkscape:collect="always"
       xlink:href="#linearGradient4507"
       id="linearGradient4517"
       gradientUnits="userSpaceOnUse"
       x1="83.898308"
       y1="297.45761"
       x2="531.35596"
       y2="297.45761" />
    <linearGradient
       inkscape:collect="always"
       xlink:href="#linearGradient4507"
       id="linearGradient4519"
       gradientUnits="userSpaceOnUse"
       x1="83.898308"
       y1="297.45761"
       x2="531.35596"
       y2="297.45761" />
    <linearGradient
       inkscape:collect="always"
       xlink:href="#linearGradient4507"
       id="linearGradient4521"
       gradientUnits="userSpaceOnUse"
       x1="83.898308"
       y1="297.45761"
       x2="531.35596"
       y2="297.45761" />
    <linearGradient
       inkscape:collect="always"
       xlink:href="#linearGradient4507"
       id="linearGradient4523"
       gradientUnits="userSpaceOnUse"
       x1="83.898308"
       y1="297.45761"
       x2="531.35596"
       y2="297.45761" />
  </defs>
  <sodipodi:namedview
     pagecolor="#ffffff"
     bordercolor="#666666"
     borderopacity="1"
     objecttolerance="10"
     gridtolerance="10"
     guidetolerance="10"
     inkscape:pageopacity="0"
     inkscape:pageshadow="2"
     inkscape:window-width="1280"
     inkscape:window-height="961"
     id="namedview4"
     showgrid="false"
     inkscape:zoom="0.39333333"
     inkscape:cx="300"
     inkscape:cy="401.69492"
     inkscape:window-x="-8"
     inkscape:window-y="-8"
     inkscape:window-maximized="1"
     inkscape:current-layer="svg2" />
  <g
     id="g4487"
     transform="translate(-7.6271204,-5.0847435)"
     style="fill:url(#linearGradient4509);fill-opacity:1">
    <path
       style="fill:url(#linearGradient4511);fill-opacity:1"
       d="M 300.70631,590.37298 C 300.31784,589.98451 300,559.09721 300,521.73454 v -67.93212 l -2.93761,-2.74413 c -1.61568,-1.50928 -6.90318,-4.47892 -11.75,-6.59921 C 256.54728,431.87549 241.50668,412.68786 237.92034,384 c -0.65319,-5.225 -1.6506,-10.08422 -2.21647,-10.79826 -1.84593,-2.32927 -5.03063,-0.86884 -7.1601,3.28347 -2.66187,5.19044 -9.29615,11.83766 -14.42723,14.45534 -5.21397,2.65996 -16.35705,5.25249 -20.8974,4.86194 -5.77829,-0.49704 -6.14878,-2.59274 -1.91378,-10.82556 3.08666,-6.00046 3.69303,-8.19395 3.68487,-13.32965 -0.0203,-12.80233 -6.56611,-20.74447 -23.68584,-28.73862 -36.61868,-17.0993 -57.08175,-41.70118 -60.18968,-72.3635 -0.78017,-7.69705 0.0234,-23.25421 1.43006,-27.68621 0.28771,-0.90651 -0.19841,-2.36973 -1.08027,-3.2516 -2.27343,-2.27343 -5.00998,-0.53652 -6.51474,4.13497 -1.59161,4.94111 -2.73135,6.25768 -5.417217,6.25768 -2.87947,0 -4.842103,-2.25019 -8.023314,-9.19888 -4.240748,-9.26301 -5.840961,-18.72595 -5.80043,-34.30112 0.06629,-25.47377 6.050449,-50.03726 19.791841,-81.2406 1.99595,-4.53233 3.36203,-8.67258 3.03573,-9.20055 -0.33271,-0.53833 -2.20933,0.13673 -4.27269,1.53696 -2.12838,1.44436 -4.751037,2.37199 -6.221548,2.20055 -3.123509,-0.36414 -3.156005,-2.72671 -0.150584,-10.94803 1.136327,-3.10842 3.437042,-13.458423 5.112712,-23.000003 C 104.67992,76.306747 106.7365,66.025 107.57444,63 c 4.0732,-14.70448 10.78301,-26.73804 18.25874,-32.745697 4.57632,-3.677633 11.94283,-7.510771 13.0816,-6.80697 0.46541,0.287636 1.17349,4.467155 1.57351,9.28782 1.41902,17.10053 6.35611,30.21238 15.99503,42.479382 13.17977,16.773274 36.73521,21.937198 62.09397,13.612505 3.60369,-1.183008 13.16054,-5.91178 21.23744,-10.508382 8.24153,-4.690295 18.10854,-9.445919 22.48689,-10.838058 13.92195,-4.426616 28.5735,-2.755721 40.12967,4.576474 l 4.9313,3.128822 3.5687,-2.143157 c 9.41397,-5.653479 17.13432,-7.979947 26.60861,-8.018293 11.24567,-0.04552 21.10873,3.501956 39.32178,14.142952 21.3108,12.450865 36.44513,15.581435 54.63832,11.302056 1.65,-0.388111 9.24779,-3.91501 16.88398,-7.837555 23.76476,-12.207437 34.71235,-24.904308 46.45843,-53.881899 0.61309,-1.5125 1.7631,-2.75 2.55556,-2.75 0.79247,0 3.85997,2.210939 6.81668,4.913198 9.39576,8.587197 12.99821,18.838234 14.79029,42.086802 1.98367,25.734211 3.01002,33.20739 5.58532,40.66872 1.41603,4.1026 2.32663,8.10548 2.02355,8.89528 -0.89331,2.32793 -4.50936,1.66654 -11.12943,-2.03561 -9.07421,-5.07459 -9.62484,-3.42295 -3.36111,10.08176 2.26779,4.88942 6.04846,14.73985 8.40148,21.88985 10.6703,32.42327 12.7589,61.83661 5.92668,83.4644 -4.41863,13.98743 -9.35617,16.78325 -14.3928,8.14973 -3.40309,-5.83338 -6.34738,-6.91629 -9.6971,-3.56657 -2.11555,2.11555 -2.42392,3.12733 -1.90145,6.23875 0.83671,4.98271 -1.03253,20.95901 -3.53502,30.21369 -7.12367,26.34473 -28.83389,51.71047 -58.29948,68.11582 -13.91721,7.74858 -19.11571,14.6495 -19.12204,25.38418 -0.003,4.72063 0.70988,7.52175 3.34228,13.13671 2.76358,5.89479 3.1501,7.5024 2.22113,9.23819 -1.54931,2.89492 -4.9002,3.50911 -11.57968,2.12246 -11.93642,-2.47799 -19.30133,-7.21123 -25.0552,-16.10234 -3.24663,-5.01681 -4.28265,-5.93753 -6.40272,-5.69015 -2.16217,0.25229 -2.63057,0.94838 -3.22665,4.79513 -3.23935,20.90516 -3.87014,23.60728 -7.08114,30.33356 -7.19168,15.06489 -17.0605,23.88277 -38.22156,34.15134 -7.15,3.46959 -13.9,6.99346 -15,7.83082 -1.95743,1.49006 -2.01064,2.99827 -2.5,70.85338 l -0.5,69.3309 -7.04369,0.28965 c -3.87403,0.1593 -7.36153,-0.0282 -7.75,-0.41667 z m -29.6527,-426.55911 c 6.81499,-3.10476 11.33452,-6.99849 18.97148,-16.34458 C 296.65619,139.35418 300.62318,137 307.66673,137 c 6.96257,0 10.77473,2.47902 19.39391,12.61172 6.44962,7.58217 8.70928,9.47607 15.37739,12.88828 7.73545,3.95839 7.93244,4 18.93936,4 10.12948,0 11.62634,-0.24737 16.76412,-2.77047 9.66204,-4.7449 18.1994,-16.39676 19.58543,-26.73036 l 0.51851,-3.86583 -5.87272,2.37164 c -6.31851,2.55166 -16.24855,4.47529 -23.16489,4.48747 -12.17144,0.0214 -27.96513,-5.66564 -39.81165,-14.33555 -11.79286,-8.63064 -19.56166,-11.04173 -28.13041,-8.73043 -2.32883,0.62817 -8.56056,4.09603 -13.84831,7.70637 -5.28774,3.61033 -12.42467,7.87948 -15.85984,9.48699 -14.33253,6.707 -30.14175,7.42605 -46.07796,2.09578 l -8.64122,-2.89027 0.64944,3.58733 c 0.84333,4.65832 4.92173,13.62453 8.08191,17.76773 3.1325,4.10692 9.60197,8.59428 15.43559,10.70643 7.03761,2.54809 22.81541,1.72215 30.04822,-1.57296 z"
       id="path4501"
       inkscape:connector-curvature="0" />
    <path
       style="fill:url(#linearGradient4513);fill-opacity:1"
       d="m 303.56601,459.13026 c -3.38871,-6.6873 -6.78588,-9.24803 -21.98935,-16.57524 C 270.64849,437.28826 267.15278,435.01957 260.7451,429.0355 247.71376,416.86567 240.45659,402.48202 238.02276,384 c -1.55179,-11.78402 -1.71119,-12.17245 -4.84561,-11.80814 -1.95372,0.22708 -3.29048,1.47018 -5.08127,4.72524 -5.34017,9.70668 -14.73204,15.91614 -27.41349,18.12452 -11.59706,2.01954 -14.90306,-0.56359 -10.21861,-7.98425 3.36443,-5.32959 5.72525,-14.53099 4.88273,-19.03063 -2.11382,-11.28927 -7.85277,-17.28589 -24.31542,-25.40714 C 153.02561,333.73726 144.7635,328.0513 134,317.13493 126.42585,309.4532 123.55875,305.67551 119.85694,298.5 c -7.22953,-14.01356 -8.28261,-18.56877 -8.32256,-36 -0.0189,-8.25 0.28839,-16.44509 0.68288,-18.21131 0.52119,-2.33345 0.28444,-3.64414 -0.86607,-4.79464 -2.66503,-2.66504 -3.89535,-1.52729 -7.57595,7.00595 -1.45022,3.36224 -4.927409,4.44114 -7.498977,2.32676 C 93.751351,246.75075 89.398726,236.2687 87.502061,227.6966 85.049009,216.60988 85.785216,189.74599 88.946215,175 c 2.805299,-13.08666 9.52199,-33.6568 14.856945,-45.5 4.19796,-9.31916 5.89592,-14.5 4.75219,-14.5 -0.3638,0 -2.31704,1.125 -4.34054,2.5 -4.10511,2.7895 -7.989507,3.25071 -8.834402,1.04894 -0.306252,-0.79808 0.593461,-4.32631 1.999364,-7.84051 1.407561,-3.51835 3.924698,-14.212432 5.601718,-23.798946 5.22163,-29.848922 9.75482,-42.402856 18.84676,-52.19298 C 127.21945,28.911303 134.42568,24 137.5523,24 c 2.00211,0 2.21006,0.653269 2.83248,8.898402 0.90296,11.961303 2.78429,18.884537 8.044,29.601598 11.97311,24.396124 32.44188,34.317717 59.94358,29.055772 10.06042,-1.924876 17.27176,-4.953291 31.97236,-13.426859 15.90189,-9.165998 23.9652,-12.201904 34.15528,-12.85977 9.96491,-0.643328 18.63359,1.400456 26.97286,6.359298 l 5.97286,3.551686 6.52714,-3.505885 c 9.91268,-5.32434 16.94571,-7.027124 26.47538,-6.410022 10.36623,0.671274 18.37359,3.704382 35.27523,13.36191 29.49082,16.850928 45.50657,18.203144 69.60226,5.876545 C 464.65004,74.616964 472.70408,68.180062 480.98912,56 c 3.73148,-5.48574 10.4449,-18.363928 13.03255,-25 0.75063,-1.925 1.81372,-3.804641 2.36242,-4.176979 2.76754,-1.877998 11.75656,6.574219 16.09319,15.132143 3.87286,7.642715 5.38842,15.942583 7.0322,38.511285 1.60227,21.998891 2.26985,26.195991 5.56932,35.014601 1.15477,3.08643 1.84858,6.26582 1.54178,7.06532 -0.91977,2.39688 -4.894,1.66092 -11.05056,-2.04637 -3.19678,-1.925 -6.15966,-3.5 -6.58419,-3.5 -2.17959,0 -1.21218,3.77882 4.21792,16.47567 17.08256,39.9431 21.68643,81.47792 11.80754,106.52433 -2.65831,6.73974 -4.5953,9 -7.71279,9 -1.66542,0 -2.90872,-0.96762 -4.09501,-3.18701 -2.87828,-5.38487 -5.94956,-8.02248 -8.47014,-7.27412 -4.03758,1.19875 -4.73335,3.26942 -4.73335,14.08688 0,19.29329 -5.35326,36.05424 -17.1444,53.67873 -8.56691,12.80517 -30.9694,32.19809 -45.8556,39.69531 -6.85388,3.45185 -11.74131,7.70415 -14.76323,12.84472 -2.29238,3.89955 -2.7314,5.79213 -2.70371,11.65549 0.0279,5.90906 0.54173,7.9841 3.29693,13.31445 5.07178,9.81213 2.53957,13.27953 -8.24234,11.28639 -12.22836,-2.26054 -23.20135,-9.65178 -27.94369,-18.82245 -1.88375,-3.64278 -3.85584,-4.57516 -6.14168,-2.90372 -1.22241,0.89385 -1.95169,3.72005 -2.62721,10.18132 -2.26692,21.68261 -9.84917,36.24655 -24.67871,47.40268 -3.683,2.77069 -12.54967,7.90063 -19.70372,11.39986 -14.7268,7.20328 -18.68675,10.13014 -21.67082,16.01726 -3.60412,7.11038 -4.9717,7.23536 -8.25581,0.75447 z M 262.28039,166.52851 c 11.58644,-2.45517 19.27544,-7.75793 28.02729,-19.32919 C 295.4871,140.35136 301.13626,137 307.5,137 c 6.67013,0 11.93096,3.33685 18.94246,12.01485 8.93394,11.05736 16.86627,16.02492 28.60873,17.91599 11.56789,1.86295 24.84975,-2.05709 32.3357,-9.54364 4.45405,-4.45441 9.55242,-14.51587 10.34327,-20.41207 l 0.53913,-4.01949 -4.38465,1.8705 c -7.80216,3.3284 -15.15466,4.6477 -25.38464,4.55489 -14.03158,-0.1273 -23.24395,-3.33464 -37.90289,-13.19609 -12.33521,-8.29821 -16.71627,-10.19507 -23.47284,-10.16298 -5.78482,0.0275 -11.1077,2.41917 -21.17751,9.51556 -20.33645,14.33148 -39.77793,17.70434 -60.69676,10.53012 -5.50822,-1.88907 -8.25,-2.43078 -8.25,-1.63001 0,3.08657 3.47492,12.53237 6.17477,16.78474 5.6294,8.86652 13.30474,13.88288 23.94599,15.65035 7.55585,1.255 7.61943,1.25356 15.15963,-0.34421 z"
       id="path4499"
       inkscape:connector-curvature="0" />
    <path
       style="fill:url(#linearGradient4515);fill-opacity:1"
       d="m 304.5332,459.7112 c -3.58937,-7.56404 -7.15608,-10.41687 -22.20662,-17.76202 -13.4163,-6.54758 -15.23114,-7.76919 -22.70424,-15.2828 -12.68293,-12.7517 -18.38308,-24.39723 -20.63921,-42.16638 -1.51925,-11.96553 -2.27202,-13.71544 -5.72807,-13.31561 -1.84346,0.21327 -3.38092,1.40561 -4.74155,3.67716 -3.26882,5.45728 -9.602,12.106 -13.96952,14.66554 -4.34522,2.54647 -15.01576,5.43376 -20.17155,5.45813 -5.59985,0.0265 -5.99688,-2.01358 -1.96165,-10.07953 4.51463,-9.0242 4.89093,-16.60412 1.21161,-24.40569 -3.74094,-7.93226 -8.72825,-12.02592 -23.31123,-19.13425 -35.73706,-17.41969 -54.81242,-40.52811 -58.21789,-70.52673 -0.8766,-7.7219 0.10292,-27.36855 1.4307,-28.69634 C 114.75723,240.90944 111.60437,238 109.0347,238 c -2.57694,0 -3.11005,0.57668 -4.85335,5.25 -1.72902,4.63502 -2.28989,5.25 -4.788073,5.25 -8.246013,0 -14.85211,-27.85324 -12.498795,-52.69859 C 88.951065,174.08885 95.408578,149.9991 104.53325,130 c 6.95037,-15.23355 6.89248,-18.39995 -0.24769,-13.54808 -2.0624,1.40144 -4.822828,2.54808 -6.134272,2.54808 -2.717728,0 -2.66927,-0.643 0.765051,-10.15167 1.122691,-3.10842 3.415901,-13.458423 5.096011,-23.000003 3.81452,-21.663129 5.31399,-27.276916 10.01656,-37.500627 4.10739,-8.929757 10.03538,-16.116724 16.91687,-20.509652 4.25368,-2.715415 8.00348,-3.682136 8.0993,-2.088048 1.47816,24.590525 6.78588,39.228328 19.09544,52.662052 10.07261,10.992473 24.96445,16.444385 41.35948,15.141732 14.87456,-1.181847 23.30061,-4.216541 42.23322,-15.210574 15.03587,-8.731223 25.32518,-12.31219 35.42769,-12.329832 9.00827,-0.01573 17.41149,2.321355 24.8883,6.921881 l 5.17474,3.184052 9.38312,-4.751445 c 8.70244,-4.40676 10.03546,-4.782634 18.37562,-5.181381 12.24302,-0.585347 21.23748,2.279347 38.89153,12.38678 26.23647,15.021108 42.78585,18.132906 61.48423,11.560952 6.90626,-2.427353 24.73484,-12.267956 31.23705,-17.241494 C 471.93083,68.811724 477.52456,62.589482 482.68084,55 c 3.38492,-4.98223 10.63285,-19.097738 11.80987,-23 0.41474,-1.375 1.19426,-3.050649 1.73227,-3.723664 2.28355,-2.856577 10.66751,4.627225 15.19663,13.565029 3.73074,7.362248 5.46265,15.406233 6.60098,30.658635 1.92202,25.753143 2.97579,33.63658 5.50211,41.16236 3.57592,10.65247 2.29513,11.61704 -7.9266,5.96956 -10.28384,-5.6818 -10.96691,-3.29793 -3.70656,12.93553 12.76069,28.53173 19.53718,62.25193 17.16189,85.39855 -1.03337,10.06988 -4.78305,23.81494 -7.57955,27.784 -2.38989,3.39197 -6.07336,2.93534 -8.06679,-1 -0.90545,-1.7875 -2.33675,-4.0375 -3.18067,-5 -1.85487,-2.11551 -7.50946,-2.3164 -9.16177,-0.32549 -0.70208,0.84595 -1.3325,6.06988 -1.55221,12.86214 -0.42182,13.04085 -2.97545,25.2158 -7.53745,35.93635 -9.34363,21.9572 -31.40205,44.4054 -56.79392,57.7975 -11.46533,6.047 -18.16688,16.75596 -16.78678,26.82495 0.34743,2.53475 1.98481,7.50018 3.63862,11.0343 4.63017,9.89445 2.47046,12.39956 -8.69911,10.09032 -11.46248,-2.36979 -19.76303,-8.08721 -25.72603,-17.72007 -1.89445,-3.06037 -3.29286,-4.25 -4.99587,-4.25 -3.58017,0 -4.45648,1.82132 -5.56465,11.56551 -2.09562,18.42686 -6.33832,28.46746 -16.64632,39.39448 -7.54322,7.99621 -14.56454,12.70759 -29.41193,19.73571 -12.24061,5.79417 -15.40603,8.25973 -19.487,15.1785 -1.65,2.79736 -3.54139,5.09504 -4.20308,5.10596 -0.6617,0.0109 -1.90537,-1.46012 -2.76372,-3.26896 z M 272.02008,164.25895 c 6.96868,-3.35781 11.33118,-7.11311 19.79665,-17.04125 6.21316,-7.28667 9.75067,-9.38437 15.82559,-9.38437 6.15685,0 10.95767,3.1691 18.84272,12.43838 11.54815,13.57543 21.64294,18.30762 37.41668,17.53998 10.40023,-0.50613 17.80836,-3.52177 24.09499,-9.8084 4.93298,-4.93298 10.05211,-15.25682 10.78373,-21.74773 0.47499,-4.21407 0.3636,-4.51681 -1.3819,-3.7557 -10.86278,4.73661 -16.15239,5.88363 -27.39854,5.94124 -9.48921,0.0486 -12.71529,-0.34815 -18.45043,-2.26907 -9.11469,-3.05286 -11.29583,-4.21395 -22.42322,-11.93664 -17.58308,-12.20311 -24.66513,-12.29022 -41.91105,-0.51552 -5.30764,3.62381 -12.40722,7.87889 -15.77684,9.45572 -14.28074,6.68277 -30.07587,7.35915 -46.12802,1.9753 -4.84574,-1.62525 -8.9998,-2.77222 -9.23124,-2.54882 -0.23143,0.2234 0.10345,2.6773 0.74418,5.45311 3.39895,14.72507 13.25513,25.45665 26.67662,29.04599 1.65,0.44126 7.275,0.68915 12.5,0.55086 8.30772,-0.21987 10.31829,-0.64572 16.02008,-3.39308 z"
       id="path4497"
       inkscape:connector-curvature="0" />
    <path
       style="fill:url(#linearGradient4517);fill-opacity:1"
       d="m 303.68934,456.58732 c -4.61481,-6.9504 -8.36913,-9.74898 -19.40745,-14.46684 -11.59822,-4.95716 -19.54122,-10.41421 -26.98896,-18.54211 -10.22753,-11.16154 -15.48163,-23.12763 -17.80977,-40.56136 -1.46669,-10.98293 -2.78026,-13.41664 -6.91122,-12.80475 -1.08183,0.16024 -3.87177,3.11091 -6.29653,6.65925 -4.91782,7.19665 -7.06176,9.26143 -12.77541,12.3037 -7.75482,4.12909 -21.43817,6.35188 -23.04974,3.7443 -0.36728,-0.59426 0.84366,-4.06104 2.69098,-7.70394 2.94584,-5.80918 3.35472,-7.55116 3.32592,-14.16951 -0.0249,-5.71427 -0.54807,-8.52303 -2.15534,-11.57068 -3.57952,-6.78737 -11.07637,-12.84781 -22.64063,-18.30265 C 127.80018,320.47885 108.11871,290.06534 112.99907,250.50751 114.41017,239.06988 113.87896,237 109.53254,237 c -2.7775,0 -4.92803,2.4047 -6.48366,7.25 -0.96228,2.99717 -1.7002,3.75 -3.675723,3.75 -2.086866,0 -3.004853,-1.12889 -5.89553,-7.25 -11.845876,-25.08406 -6.803639,-69.32247 12.908093,-113.25 3.7624,-8.38451 4.61129,-13.5 2.24023,-13.5 -0.75572,0 -3.4552,1.16318 -5.99883,2.58484 -4.038381,2.2571 -4.702854,2.38137 -5.240554,0.98015 -0.338677,-0.88258 0.299586,-3.73326 1.418363,-6.33484 1.999841,-4.65038 2.557111,-7.15083 7.640541,-34.282441 4.15955,-22.200624 8.46167,-32.657792 17.34077,-42.150267 4.6127,-4.93135 12.6323,-10.274839 14.07887,-9.380807 0.46041,0.284546 1.0901,4.757964 1.39932,9.940929 1.52137,25.500354 17.43575,49.519527 37.16919,56.098546 17.90653,5.969937 39.99618,2.57329 59.87439,-9.206674 18.00734,-10.671271 26.47588,-14.190566 37.80827,-15.712083 6.90731,-0.927394 17.92039,1.753167 26.46108,6.440571 l 7.36235,4.040689 4.99191,-3.071554 C 321.05631,68.947887 327.9085,67 337.36968,67 c 10.11679,0 17.72761,2.181196 29.13032,8.348505 4.4,2.379798 12.32758,6.653025 17.61685,9.496059 15.98223,8.590603 32.33798,11.271722 46.40684,7.607249 7.40516,-1.928798 27.43221,-12.365473 35.9591,-18.739329 10.30816,-7.705347 19.68664,-20.61749 26.56019,-36.567635 2.0276,-4.705081 4.12055,-8.699359 4.651,-8.876175 0.53044,-0.176815 3.05814,1.521456 5.61709,3.773938 9.12575,8.032809 12.84616,20.201356 14.66248,47.957388 1.29749,19.827655 2.40145,27.25452 5.13868,34.57041 3.39223,9.06656 1.33884,10.06531 -7.99483,3.88858 -4.69861,-3.10939 -8.4711,-2.98892 -8.93621,0.28536 -0.17535,1.2344 1.79631,6.85867 4.38146,12.49839 12.33641,26.91286 19.57067,60.0512 18.07888,82.81486 -0.96416,14.71234 -6.05422,31.8507 -9.86479,33.21503 C 516.98753,247.91323 514,246.20511 514,244.54154 514,241.72224 508.93503,237 505.91111,237 c -5.4949,0 -6.54137,2.33769 -7.20629,16.09795 -1.05568,21.84718 -7.13198,39.05614 -19.6614,55.68394 -9.77803,12.97643 -26.46713,27.12782 -40.99684,34.76297 -14.08242,7.4001 -20.29658,15.69575 -20.29658,27.09507 0,5.15828 0.61022,7.64947 3.125,12.75772 1.71875,3.49128 3.125,7.03191 3.125,7.86808 0,3.3106 -6.02495,3.5881 -15.35255,0.7071 -8.24904,-2.54787 -14.01681,-6.90827 -19.20615,-14.51973 -2.97625,-4.36541 -4.75977,-6.03588 -6.68739,-6.26348 -3.87354,-0.45737 -5.45249,2.81961 -6.66398,13.83054 -2.9815,27.09814 -14.33066,41.87855 -42.62841,55.51646 -14.90465,7.18319 -17.92905,9.40014 -22.46316,16.46594 -1.76377,2.74859 -3.32123,4.99744 -3.46103,4.99744 -0.13979,0 -1.87139,-2.4357 -3.84799,-5.41268 z M 450,328 c 0,-0.55 -0.45,-1 -1,-1 -0.55,0 -1,0.45 -1,1 0,0.55 0.45,1 1,1 0.55,0 1,-0.45 1,-1 z m 12.83333,-9 C 462.65,318.45 462.05,318 461.5,318 c -0.55,0 -1.15,0.45 -1.33333,1 -0.18334,0.55 0.41666,1 1.33333,1 0.91667,0 1.51667,-0.45 1.33333,-1 z M 272.21524,164.77913 c 7.53121,-3.59352 12.40218,-7.75618 19.28476,-16.48048 11.12587,-14.10304 21.03683,-13.61767 33.78816,1.65474 7.54585,9.03775 12.79376,13.17049 20.42953,16.08829 17.3874,6.64411 37.25652,1.35387 46.76447,-12.45125 5.25628,-7.63189 9.54577,-22.59043 6.478,-22.59043 -0.57191,0 -2.80774,0.90192 -4.96852,2.00426 -9.49198,4.84245 -27.0593,6.41866 -38.53154,3.45719 -8.37898,-2.16297 -17.65536,-6.68152 -25.36417,-12.35497 -17.25087,-12.69612 -25.9192,-12.96708 -42.94539,-1.34239 -17.19379,11.73912 -26.65065,15.19345 -41.67064,15.22113 -8.13876,0.015 -19.73223,-2.51299 -25.71642,-5.60753 -4.26883,-2.2075 -5.33717,-0.73019 -3.83813,5.30738 2.91157,11.72674 9.29765,21.01716 17.92036,26.07039 6.89302,4.03959 12.60166,5.28202 22.36953,4.86853 7.44363,-0.3151 9.77814,-0.87609 16,-3.84486 z"
       id="path4495"
       inkscape:connector-curvature="0" />
    <path
       style="fill:url(#linearGradient4519);fill-opacity:1"
       d="m 304.61463,456.6054 c -3.73105,-6.36657 -7.29838,-8.94674 -22.49716,-16.27169 -12.39718,-5.97473 -14.30256,-7.26523 -21.69215,-14.69189 -12.36955,-12.43161 -18.11828,-24.57628 -20.42673,-43.15314 -1.29506,-10.42179 -1.48918,-10.93555 -4.68169,-12.39015 -3.50693,-1.59787 -5.77705,0.0401 -10.26494,7.40671 -5.61438,9.21562 -14.23738,14.08267 -28.3094,15.97858 -6.37787,0.85928 -6.79106,-0.60821 -2.58013,-9.1636 2.79619,-5.68104 3.32511,-7.83851 3.26077,-13.3006 -0.153,-12.98808 -7.60441,-21.93251 -25.06309,-30.08494 -32.77642,-15.30513 -52.31711,-36.58419 -57.87996,-63.02903 -1.74479,-8.29447 -1.91844,-21.72499 -0.39406,-30.47862 1.25934,-7.23167 0.31838,-10.03643 -3.70593,-11.04647 -3.21076,-0.80584 -5.78123,1.57117 -7.69889,7.11944 -2.11,6.10475 -4.502337,5.38917 -8.358035,-2.5 -5.152851,-10.54328 -6.691542,-20.6538 -6.005684,-39.4625 0.866413,-23.76019 6.611247,-47.10255 17.468069,-70.97607 6.98447,-15.35846 6.02627,-20.77417 -2.65868,-15.02673 -2.20633,1.46007 -4.437032,2.39169 -4.957124,2.07025 -0.544974,-0.33681 0.05011,-3.04961 1.40453,-6.40282 1.292584,-3.20011 3.723224,-13.667232 5.401414,-23.26026 5.31852,-30.402169 9.79655,-42.591429 19.36308,-52.706628 C 128.5035,30.831733 135.29118,26 137.31263,26 c 0.21578,0 0.67833,3.7125 1.02791,8.25 0.85248,11.065124 2.89807,18.659585 7.60922,28.25 7.43832,15.142041 18.39159,25.67427 31.05024,29.856659 11.91334,3.936139 30.34595,3.098322 44,-1.999932 3.575,-1.334861 12.35,-5.766584 19.5,-9.848273 18.8168,-10.741867 24.78769,-12.858909 36.5,-12.94148 10.59896,-0.07472 16.57535,1.509501 24.38973,6.465233 C 303.96358,75.664493 306.69428,77 307.45794,77 c 0.76367,0 4.69569,-1.78388 8.73782,-3.964178 9.39134,-5.065627 18.74282,-6.845362 27.88898,-5.307716 9.08089,1.526671 15.8216,4.292203 28.95363,11.878881 14.54083,8.400572 22.48667,11.81044 32.16947,13.805153 15.63364,3.220619 24.58171,1.482262 43.65036,-8.480026 15.8226,-8.266409 22.41658,-13.305294 30.3907,-23.223484 5.28389,-6.572078 15.63634,-25.129539 16.99164,-30.45863 0.31472,-1.2375 1.06305,-2.25 1.66296,-2.25 2.32292,0 9.39763,7.653563 12.19241,13.189999 4.25134,8.421858 5.62085,15.73751 7.38724,39.461242 1.51787,20.385969 2.85247,28.429569 5.94517,35.831439 0.88731,2.12365 1.07719,3.7049 0.48855,4.0687 -0.52955,0.32728 -3.88695,-1.04021 -7.46089,-3.03887 -6.83675,-3.82333 -9.85993,-3.96586 -10.95472,-0.51647 -0.36975,1.16496 1.48235,6.62916 4.81273,14.19885 12.82736,29.15561 18.4798,55.32675 17.41064,80.61225 -0.56093,13.26594 -2.28003,21.6171 -6.00939,29.19286 -2.92337,5.93848 -5.0439,6.23625 -7.67554,1.07783 -3.69441,-7.24166 -9.35285,-8.8782 -13.88328,-4.01535 -1.59849,1.71578 -1.98393,4.12669 -2.4361,15.23789 -0.58598,14.39904 -2.17594,21.83361 -7.24656,33.88447 -8.70323,20.68416 -28.8334,41.68329 -52.34226,54.60174 -15.44641,8.48802 -20.65606,15.6247 -20.5953,28.21342 0.0309,6.40781 0.49285,8.38352 3.17206,13.56709 3.76666,7.28752 3.24923,8.8373 -2.87071,8.59812 -11.31139,-0.44207 -22.05837,-6.78182 -28.45964,-16.78862 -3.81518,-5.96408 -6.38601,-7.25653 -9.88014,-4.96709 -2.47334,1.6206 -2.90064,3.11376 -4.03223,14.0905 -0.87821,8.51885 -2.33284,14.05435 -5.63415,21.44043 -6.52319,14.59442 -16.29938,23.36688 -37.33139,33.49857 -14.57604,7.02168 -18.38897,9.80903 -22.11463,16.1664 C 308.96889,459.02243 307.67048,461 307.5,461 c -0.17048,0 -1.46889,-1.97757 -2.88537,-4.3946 z m 146.3748,-127.09267 c 2.45973,-2.96379 -0.99417,-6.10799 -3.71776,-3.3844 -0.83777,0.83777 -0.82733,1.6103 0.0406,3 1.4118,2.26066 2.06351,2.32879 3.67721,0.3844 z M 461,322.02846 c 3.18466,-2.65487 3.35868,-3.06084 1.93145,-4.50594 -1.43151,-1.44943 -1.80732,-1.3669 -4.30152,0.94465 C 457.12679,319.86022 455.47014,321 454.94848,321 454.42682,321 454,321.9 454,323 c 0,2.87433 2.86337,2.47692 7,-0.97154 z M 263.78148,168.48948 c 11.45541,-2.70079 18.35714,-7.59652 28.26837,-20.05213 10.50825,-13.20589 21.02992,-12.7505 32.31945,1.39884 6.90265,8.6512 10.60101,11.7648 18.22894,15.34669 11.78183,5.53248 24.76852,5.82703 36.11899,0.81921 9.70143,-4.28026 18.61382,-16.18534 21.38423,-28.56484 1.6451,-7.35108 0.71063,-8.12337 -6.17463,-5.10299 -8.335,3.65636 -15.5741,5.06628 -25.42683,4.95227 -13.94597,-0.16139 -26.10207,-4.63731 -38.96477,-14.347 -8.04008,-6.06922 -15.09675,-8.9219 -22.03523,-8.9078 -7.21954,0.0147 -11.77542,1.91785 -22.32776,9.3272 -14.85789,10.4325 -24.87091,13.96112 -39.67224,13.98058 -9.02246,0.0119 -19.9093,-2.43338 -26.8827,-6.03801 -4.01637,-2.07611 -4.70862,-0.45329 -2.97558,6.97559 3.79083,16.24984 14.17949,26.98587 29.35828,30.33995 7.4484,1.64589 11.37245,1.61923 18.78148,-0.12756 z"
       id="path4493"
       inkscape:connector-curvature="0" />
    <path
       style="fill:url(#linearGradient4521);fill-opacity:1"
       d="m 304.13109,454.69053 c -3.90558,-5.67657 -9.2437,-9.43989 -19.35115,-13.64238 -25.96322,-10.79502 -40.1423,-29.52987 -44.12227,-58.29884 C 239.16609,371.96753 237.48995,369 232.8917,369 c -2.93129,0 -3.74556,0.84062 -8.85144,9.13789 -3.28239,5.33401 -9.35279,9.86075 -16.54026,12.3342 -5.17815,1.78197 -16.5,3.2788 -16.5,2.18142 0,-0.34335 1.44427,-3.37954 3.2095,-6.7471 6.40205,-12.21332 4.7573,-24.63931 -4.56038,-34.45331 -4.16207,-4.38378 -7.71867,-6.68523 -18.55368,-12.00595 C 156.52215,332.29068 148.75028,327.38334 140.7827,320.30701 119.75141,301.62824 111.48045,280.17229 114.17983,251.29566 115.47044,237.48937 115.01792,236 109.53254,236 c -3.76073,0 -5.79028,1.97629 -7.50178,7.3049 -1.6758,5.21745 -3.879923,4.51585 -7.241033,-2.3049 -4.530777,-9.19438 -6.245207,-18.76445 -6.180502,-34.5 0.08808,-21.42019 5.42069,-46.55685 14.425845,-68 2.30975,-5.5 5.29661,-12.60474 6.63746,-15.78832 3.82081,-9.07169 1.15754,-12.8503 -5.80821,-8.24059 -4.518108,2.98994 -6.398262,3.26533 -5.317943,0.77891 2.842273,-6.54166 4.794313,-14.22895 7.465973,-29.401673 4.68406,-26.601313 8.00238,-36.651353 15.45267,-46.800672 3.59641,-4.899296 14.00038,-12.915588 15.20244,-11.71353 0.36681,0.366809 0.8364,3.47919 1.04354,6.916401 1.24291,20.624688 12.72384,42.843595 27.12629,52.497205 9.37277,6.282337 18.26232,8.728322 31.16271,8.574508 13.57417,-0.161847 23.36065,-2.746712 35.88315,-9.477675 C 237.17242,83.00153 245.1,78.728303 249.5,76.348505 269.38039,65.595933 285.87787,65.174969 301.86557,75.012301 304.53616,76.655535 307.17941,78 307.73944,78 c 0.56004,0 3.66027,-1.59096 6.88941,-3.535467 17.13757,-10.319837 33.58179,-8.671241 58.63793,5.878677 6.26835,3.639985 13.83515,7.690944 16.81511,9.002131 12.39323,5.453038 27.18435,7.232108 39.19156,4.713942 5.95941,-1.249815 25.14865,-10.577499 34.41845,-16.730444 11.44356,-7.595802 24.30378,-24.48563 30.89747,-40.578839 1.52108,-3.7125 3.30342,-6.75 3.96075,-6.75 1.72866,0 8.97005,8.139122 11.29365,12.693759 3.24313,6.357056 5.05819,14.9874 6.16346,29.306241 2.33332,30.22822 3.53646,37.83353 7.47482,47.25 1.14465,2.73679 -1.28693,2.15471 -7.80483,-1.86837 -5.03104,-3.10533 -6.20357,-3.46284 -8.26972,-2.52144 -3.5982,1.63945 -3.0961,5.71441 2.10118,17.0527 17.03575,37.16485 22.50947,78.73467 13.74025,104.34935 -2.98141,8.70866 -5.6154,11.60772 -7.60211,8.36718 -4.73537,-7.7239 -5.1757,-8.12672 -9.21115,-8.42625 -3.17126,-0.23539 -4.47029,0.20478 -6.2756,2.12645 -2.04011,2.17159 -2.31514,3.61618 -2.64807,13.90896 -0.2232,6.90032 -1.20885,15.03395 -2.4689,20.37356 -2.52448,10.69776 -9.98918,26.42574 -16.79552,35.38786 -9.60114,12.64212 -29.33089,28.98974 -43.78156,36.27641 -2.76869,1.39609 -6.97514,4.42218 -9.34766,6.72464 -9.3896,9.11229 -11.22005,21.03121 -5.10701,33.25406 4.34498,8.68767 3.70092,9.59035 -5.61763,7.87334 -11.82996,-2.17976 -18.40332,-6.54978 -24.73081,-16.44123 C 386.37833,370.55258 385.68581,370 382.53547,370 c -4.75942,0 -6.23881,2.59147 -7.43141,13.01778 -1.33217,11.64646 -2.66118,17.05724 -5.96715,24.29411 -6.3817,13.96969 -15.11892,21.5618 -38.36381,33.33579 -10.84788,5.49466 -15.53558,8.44147 -17.53896,11.02544 -1.50378,1.93957 -3.44984,4.45452 -4.32459,5.58876 -1.56172,2.02502 -1.64803,1.97858 -4.77846,-2.57135 z M 450.16876,331.45616 c 1.83218,-1.94912 5.13179,-4.60248 7.33246,-5.89636 5.27675,-3.10246 7.69893,-5.87463 6.9159,-7.91518 -0.67195,-1.75107 -4.91262,-2.26993 -5.87152,-0.7184 C 457.25877,319.00836 445.60495,326 443.42123,326 c -2.2912,0 -4.43687,2.52472 -4.40592,5.18426 0.0124,1.06316 0.1719,1.06895 0.83101,0.0302 1.05097,-1.65638 5.83674,-2.53626 6.64876,-1.22238 0.34262,0.55438 -0.25546,1.00796 -1.32907,1.00796 -1.94603,0 -3.56557,2.2671 -2.43044,3.40223 1.46847,1.46847 4.36121,0.32196 7.43319,-2.94607 z M 273.33147,165.68074 c 6.03962,-2.98494 8.9013,-5.22878 13.88783,-10.88941 10.7191,-12.16817 12.25749,-13.55286 16.2961,-14.66797 7.9322,-2.19019 13.16393,0.93451 23.88251,14.26405 11.84384,14.72889 35.15577,20.02985 51.8792,11.79693 7.84185,-3.86053 13.86913,-10.13535 17.79601,-18.5269 2.93157,-6.26462 5.20367,-15.40058 4.22422,-16.98534 -0.67131,-1.08621 -2.9319,-0.54664 -12.29734,2.93522 -6.55313,2.43631 -8.95186,2.79482 -19,2.83971 -15.83733,0.0707 -24.70681,-3.11198 -41.5,-14.89189 -16.54281,-11.60428 -25.33524,-11.35545 -43.42401,1.22895 -5.18321,3.60596 -12.38321,7.7982 -16,9.31607 -13.70562,5.75189 -28.57834,6.25584 -42.12157,1.42725 -4.09993,-1.46175 -8.69192,-2.90448 -10.20442,-3.20607 -2.51469,-0.50142 -2.75,-0.28955 -2.75,2.47607 0,8.66224 7.04132,22.67561 14.37924,28.61702 8.54338,6.91745 14.15673,8.58922 27.73294,8.25944 8.86038,-0.21523 10.20715,-0.52754 17.21929,-3.99313 z"
       id="path4491"
       inkscape:connector-curvature="0" />
    <path
       style="fill:url(#linearGradient4523);fill-opacity:1"
       d="m 305.12852,454.70795 c -3.46021,-5.59873 -7.31885,-8.29343 -22.02372,-15.38034 -12.61893,-6.08161 -14.22305,-7.1813 -22.16056,-15.1919 -12.08439,-12.19566 -17.8673,-24.62697 -19.56392,-42.05578 -0.87026,-8.93997 -2.57727,-12.84027 -5.99513,-13.6981 -4.01362,-1.00736 -7.26309,1.27722 -11.06069,7.77634 -4.0336,6.90303 -9.76641,11.28023 -18.17529,13.87746 -6.28634,1.94166 -14.63348,2.66689 -13.97681,1.21437 0.18648,-0.4125 1.67778,-3.225 3.314,-6.25 2.59367,-4.79512 2.97493,-6.52527 2.97493,-13.5 0,-6.70849 -0.42638,-8.81367 -2.64117,-13.04015 -3.95361,-7.54467 -10.3137,-12.75066 -23.03923,-18.8585 -27.25469,-13.08137 -44.81895,-29.36828 -53.16715,-49.30059 -5.21578,-12.45327 -6.36468,-25.43585 -4.01982,-45.42395 0.57621,-4.91174 0.39059,-5.89226 -1.46715,-7.75 -4.50539,-4.50539 -11.01733,-1.45473 -12.63712,5.92015 -0.97988,4.46135 -3.31988,3.56594 -6.002693,-2.29696 -4.908029,-10.72579 -5.979493,-17.03427 -5.902117,-34.75 0.06068,-13.89258 0.498265,-18.53021 2.769092,-29.34736 3.339394,-15.90731 8.402888,-31.73968 14.372378,-44.93906 5.56953,-12.31501 6.52106,-17.97562 3.31048,-19.69387 -1.86648,-0.99891 -2.76664,-0.78595 -5.92267,1.40117 C 102.06725,114.8394 100.15852,116 99.872544,116 c -0.285975,0 0.510026,-3.071 1.768886,-6.82445 1.25887,-3.75345 3.66096,-14.665952 5.33799,-24.250003 4.91659,-28.097826 8.91501,-38.704236 18.35264,-48.683133 C 129.61849,31.710148 134.55629,28 136.30181,28 c 0.22062,0 0.66778,3.7125 0.99369,8.25 1.81342,25.247353 17.6716,49.355921 37.29488,56.697929 12.13121,4.53887 28.96873,4.378027 44.10928,-0.421362 4.40469,-1.396238 14.25043,-6.13936 22.61721,-10.895696 17.04763,-9.691212 25.84464,-12.903125 35.49316,-12.959057 9.18181,-0.05323 15.93282,1.795366 23.72938,6.497695 l 6.61078,3.98715 9.53979,-4.82833 9.53978,-4.828329 11.63512,0.0053 c 13.82076,0.0062 16.48778,0.921129 37.32544,12.80406 7.32033,4.174502 16.90968,8.838439 21.30968,10.364306 7.09645,2.460961 9.4118,2.773239 20.5,2.764895 14.47338,-0.01089 17.96849,-1.070313 36,-10.912176 C 472.30001,73.992113 481.89325,63.888223 492.19025,43.25 495.55178,36.5125 498.59282,31 498.94811,31 c 1.72909,0 8.23784,8.136157 10.53711,13.171751 3.70623,8.116929 5.26596,16.911593 6.53147,36.828249 1.13665,17.888418 2.89111,29.14174 5.52686,35.44998 0.81581,1.95251 1.11535,3.55002 0.66565,3.55002 -0.4497,0 -2.94637,-1.35 -5.54815,-3 -5.50553,-3.4915 -10.10213,-3.91287 -11.62587,-1.06574 -1.668,3.11669 -1.29638,4.68088 3.90187,16.42353 13.48272,30.45699 20.01653,63.12449 17.28388,86.41541 -1.299,11.07164 -4.34176,21.91951 -7.10571,25.33283 l -1.86549,2.3038 -2.11148,-4.13884 c -3.83668,-7.52051 -10.38067,-9.55597 -15.49223,-4.81874 -2.48019,2.29856 -2.64602,3.01109 -2.64602,11.36901 0,25.22043 -8.93373,48.15176 -25.88542,66.44335 -4.34579,4.68929 -4.43334,4.7288 -5.53826,2.5 -1.1377,-2.29493 -6.26643,-3.73352 -7.46781,-2.09469 C 456.42745,317.96308 444.87474,325 442.79105,325 439.51419,325 438,326.79334 438,330.67432 c 0,2.67015 0.58869,3.57874 3.19044,4.92416 3.06901,1.58705 3.11659,1.7045 1.25,3.08591 -1.06724,0.78984 -4.64044,2.87147 -7.94044,4.62584 -17.27441,9.18357 -23.1398,24.17758 -15.6875,40.10279 1.75312,3.74634 3.1875,7.211 3.1875,7.69925 0,1.51523 -6.49228,0.97948 -13.18649,-1.08815 -7.61103,-2.35081 -13.41665,-6.99168 -18.63901,-14.89958 -3.24332,-4.91115 -4.173,-5.66304 -7.32979,-5.92807 -5.61556,-0.47146 -7.3085,2.47527 -8.74222,15.21663 -3.12887,27.80606 -13.31495,40.7718 -43.6687,55.58539 -13.67155,6.67215 -17.09234,9.20847 -21.49981,15.94087 l -1.56601,2.39209 z M 267.14466,169.03587 c 8.78266,-2.71429 14.46499,-6.58621 21.41616,-14.59291 9.77607,-11.26055 12.05488,-13.20224 16.34514,-13.92707 6.39509,-1.08045 11.66585,1.90373 18.71478,10.59587 11.73662,14.47258 21.45493,19.43011 37.87926,19.32306 7.88067,-0.0514 11.20837,-0.5396 15.70163,-2.30375 6.61957,-2.59897 14.78055,-9.53815 18.3194,-15.57674 3.4596,-5.90337 6.47897,-15.14204 6.47897,-19.82438 0,-3.77583 -0.12588,-3.93319 -2.75,-3.43793 -1.5125,0.28546 -5.9,1.77689 -9.75,3.3143 -6.31934,2.52348 -8.21547,2.80007 -19.5,2.84448 -17.51047,0.0689 -22.56537,-1.78172 -42.87019,-15.69509 -8.83847,-6.05634 -17.04548,-8.36845 -24.23299,-6.827 -6.18678,1.32683 -9.3419,2.93953 -19.03188,9.7279 -21.17654,14.83537 -40.23239,17.14814 -64.10349,7.78009 -3.72182,-1.4606 -4.99962,-1.59853 -5.95531,-0.64284 -2.81264,2.81264 3.68444,21.13954 10.07413,28.41699 9.80829,11.17102 27.6778,15.64209 43.26439,10.82502 z m 186.57756,160.89024 c 1.22222,-1.27325 2.47377,-2.06346 2.78121,-1.75601 0.30744,0.30744 -0.69256,1.34919 -2.22222,2.315 L 451.5,332.24111 Z"
       id="path4489"
       inkscape:connector-curvature="0" />
  </g>
</svg>
