<?xml version="1.0" encoding="UTF-8" standalone="no"?>
<!-- Generator: Adobe Illustrator 19.0.0, SVG Export Plug-In . SVG Version: 6.00 Build 0)  -->

<svg
   xmlns:dc="http://purl.org/dc/elements/1.1/"
   xmlns:cc="http://creativecommons.org/ns#"
   xmlns:rdf="http://www.w3.org/1999/02/22-rdf-syntax-ns#"
   xmlns:svg="http://www.w3.org/2000/svg"
   xmlns="http://www.w3.org/2000/svg"
   xmlns:xlink="http://www.w3.org/1999/xlink"
   xmlns:sodipodi="http://sodipodi.sourceforge.net/DTD/sodipodi-0.dtd"
   xmlns:inkscape="http://www.inkscape.org/namespaces/inkscape"
   version="1.1"
   id="Layer_1"
   x="0px"
   y="0px"
   viewBox="0 0 511.999 511.999"
   style="enable-background:new 0 0 511.999 511.999;"
   xml:space="preserve"
   sodipodi:docname="guest.svg"
   inkscape:version="0.92.1 r15371"><metadata
     id="metadata73"><rdf:RDF><cc:Work
         rdf:about=""><dc:format>image/svg+xml</dc:format><dc:type
           rdf:resource="http://purl.org/dc/dcmitype/StillImage" /></cc:Work></rdf:RDF></metadata><defs
     id="defs71"><linearGradient
       id="linearGradient4596"
       inkscape:collect="always"><stop
         id="stop4592"
         offset="0"
         style="stop-color:#00f260;stop-opacity:1" /><stop
         id="stop4594"
         offset="1"
         style="stop-color:#0575e6;stop-opacity:1" /></linearGradient><linearGradient
       id="linearGradient4590"
       inkscape:collect="always"><stop
         id="stop4586"
         offset="0"
         style="stop-color:#00f260;stop-opacity:1" /><stop
         id="stop4588"
         offset="1"
         style="stop-color:#0575e6;stop-opacity:1" /></linearGradient><linearGradient
       id="linearGradient4584"
       inkscape:collect="always"><stop
         id="stop4580"
         offset="0"
         style="stop-color:#00f260;stop-opacity:1" /><stop
         id="stop4582"
         offset="1"
         style="stop-color:#0575e6;stop-opacity:1" /></linearGradient><linearGradient
       id="linearGradient4578"
       inkscape:collect="always"><stop
         id="stop4574"
         offset="0"
         style="stop-color:#00f260;stop-opacity:1" /><stop
         id="stop4576"
         offset="1"
         style="stop-color:#0575e6;stop-opacity:1" /></linearGradient><linearGradient
       id="linearGradient4572"
       inkscape:collect="always"><stop
         id="stop4568"
         offset="0"
         style="stop-color:#00f260;stop-opacity:1" /><stop
         id="stop4570"
         offset="1"
         style="stop-color:#0575e6;stop-opacity:1" /></linearGradient><linearGradient
       inkscape:collect="always"
       id="linearGradient4554"><stop
         style="stop-color:#00f260;stop-opacity:1"
         offset="0"
         id="stop4550" /><stop
         style="stop-color:#0575e6;stop-opacity:1"
         offset="1"
         id="stop4552" /></linearGradient><linearGradient
       inkscape:collect="always"
       xlink:href="#linearGradient4554"
       id="linearGradient4556"
       x1="-4.3389745"
       y1="290.7113"
       x2="520.67694"
       y2="290.7113"
       gradientUnits="userSpaceOnUse" /><linearGradient
       inkscape:collect="always"
       xlink:href="#linearGradient4596"
       id="linearGradient4558"
       x1="-4.3389745"
       y1="290.7113"
       x2="520.67694"
       y2="290.7113"
       gradientUnits="userSpaceOnUse" /><linearGradient
       inkscape:collect="always"
       xlink:href="#linearGradient4590"
       id="linearGradient4560"
       x1="-4.3389745"
       y1="290.7113"
       x2="520.67694"
       y2="290.7113"
       gradientUnits="userSpaceOnUse" /><linearGradient
       inkscape:collect="always"
       xlink:href="#linearGradient4584"
       id="linearGradient4562"
       x1="-4.3389745"
       y1="290.7113"
       x2="520.67694"
       y2="290.7113"
       gradientUnits="userSpaceOnUse" /><linearGradient
       inkscape:collect="always"
       xlink:href="#linearGradient4578"
       id="linearGradient4564"
       x1="-4.3389745"
       y1="290.7113"
       x2="520.67694"
       y2="290.7113"
       gradientUnits="userSpaceOnUse" /><linearGradient
       inkscape:collect="always"
       xlink:href="#linearGradient4572"
       id="linearGradient4566"
       x1="-4.3389745"
       y1="290.7113"
       x2="520.67694"
       y2="290.7113"
       gradientUnits="userSpaceOnUse" /></defs><sodipodi:namedview
     pagecolor="#ffffff"
     bordercolor="#666666"
     borderopacity="1"
     objecttolerance="10"
     gridtolerance="10"
     guidetolerance="10"
     inkscape:pageopacity="0"
     inkscape:pageshadow="2"
     inkscape:window-width="1280"
     inkscape:window-height="961"
     id="namedview69"
     showgrid="false"
     inkscape:zoom="0.46093841"
     inkscape:cx="255.9995"
     inkscape:cy="255.9995"
     inkscape:window-x="-8"
     inkscape:window-y="-8"
     inkscape:window-maximized="1"
     inkscape:current-layer="Layer_1" /><g
     id="g6"
     style="fill-opacity:1;fill:url(#linearGradient4566)"><g
       id="g4"
       style="fill-opacity:1;fill:url(#linearGradient4566)"><path
         d="M175.824,93.019c-2.357,1.044-4.937,1.609-7.598,1.609h-57.428c-2.66,0-5.24-0.565-7.598-1.609    c-0.42,2.229-0.649,4.526-0.649,6.878c0,20.413,16.548,36.961,36.961,36.961s36.961-16.548,36.961-36.961    C176.473,97.546,176.244,95.249,175.824,93.019z"
         id="path2"
         style="fill-opacity:1;fill:url(#linearGradient4566)" /></g></g><g
     id="g12"
     style="fill-opacity:1;fill:url(#linearGradient4564)"><g
       id="g10"
       style="fill-opacity:1;fill:url(#linearGradient4564)"><path
         d="M172.592,74.099L143.878,2.946C143.16,1.166,141.431,0,139.512,0c-1.92,0-3.648,1.165-4.366,2.946L106.431,74.1    c-0.585,1.451-0.411,3.098,0.464,4.396c0.875,1.296,2.337,2.073,3.903,2.073h57.428c1.565,0,3.028-0.777,3.903-2.074    C173.005,77.198,173.179,75.55,172.592,74.099z"
         id="path8"
         style="fill-opacity:1;fill:url(#linearGradient4564)" /></g></g><g
     id="g18"
     style="fill-opacity:1;fill:url(#linearGradient4562)"><g
       id="g16"
       style="fill-opacity:1;fill:url(#linearGradient4562)"><path
         d="M229.4,190.628c-0.113-23.151-19.045-41.988-42.2-41.988c-84.144,0-78.162-0.091-80.22,0.206l-50.115-12.892    c4.201-5.974,35.341-50.263,39.752-56.537c5.696-8.102,3.67-19.221-4.331-24.846c-8.056-5.665-19.181-3.726-24.846,4.331    l-54.59,77.638c-3.369,4.791-4.17,10.93-2.146,16.424c2.025,5.495,6.62,9.645,12.29,11.105l69.089,17.773l0.009,308.756    c0,11.82,9.581,21.4,21.4,21.4c11.818,0,21.4-9.581,21.4-21.4V319.544h9.24v171.055c0,11.82,9.581,21.4,21.4,21.4    c11.82,0,21.4-9.581,21.4-21.4c0-6.736-0.388-202.648-0.388-209.391l-43.292-4.625c-17.923-1.914-30.901-17.996-28.987-35.92    c0.958-8.973,5.469-16.706,11.982-21.953l-4.039-34.261c-0.985-8.351,5.547-15.706,13.963-15.706h40.146    c7.786,0,15.043,6.554,13.891,16.305c2.081,1.088,3.513,3.26,3.525,5.76c0.031,6.226,0.203,40.429,0.203,40.429    c-8.473-0.905-14.404-1.539-23.04-2.461l5.421-45.973h-40.146l5.223,44.306c-6.886,2.157-11.671,8.222-12.409,15.126    c-1.046,9.794,6.045,18.581,15.839,19.627l65.152,6.959c10.567,1.131,19.781-7.194,19.728-17.822    C229.63,236.26,229.456,201.738,229.4,190.628z"
         id="path14"
         style="fill-opacity:1;fill:url(#linearGradient4562)" /></g></g><g
     id="g24"
     style="fill-opacity:1;fill:url(#linearGradient4560)"><g
       id="g22"
       style="fill-opacity:1;fill:url(#linearGradient4560)"><path
         d="M409.19,93.019c-2.357,1.044-4.938,1.609-7.598,1.609h-57.428c-2.66,0-5.24-0.565-7.598-1.609    c-0.42,2.229-0.649,4.526-0.649,6.878c0,20.413,16.548,36.961,36.961,36.961s36.961-16.548,36.961-36.961    C409.839,97.546,409.609,95.249,409.19,93.019z"
         id="path20"
         style="fill-opacity:1;fill:url(#linearGradient4560)" /></g></g><g
     id="g30"
     style="fill-opacity:1;fill:url(#linearGradient4558)"><g
       id="g28"
       style="fill-opacity:1;fill:url(#linearGradient4558)"><path
         d="M405.958,74.099L377.244,2.946C376.526,1.165,374.798,0,372.878,0c-1.92,0-3.648,1.165-4.366,2.946L339.798,74.1    c-0.585,1.451-0.413,3.098,0.463,4.396c0.875,1.298,2.339,2.073,3.903,2.073h57.428c1.565,0,3.028-0.777,3.903-2.074    C406.37,77.198,406.544,75.55,405.958,74.099z"
         id="path26"
         style="fill-opacity:1;fill:url(#linearGradient4558)" /></g></g><g
     id="g36"
     style="fill-opacity:1;fill:url(#linearGradient4556)"><g
       id="g34"
       style="fill-opacity:1;fill:url(#linearGradient4556)"><path
         d="M499.149,136.54L444.56,58.902c-5.665-8.056-16.789-9.996-24.846-4.331c-7.867,5.531-10.098,16.644-4.331,24.846    c3.826,5.442,36.057,51.281,39.752,56.537l-49.313,12.686h-66.276l-49.313-12.686c4.201-5.974,35.341-50.263,39.752-56.537    c5.705-8.116,3.657-19.229-4.331-24.846c-8.056-5.666-19.181-3.727-24.846,4.331l-54.59,77.638    c-3.369,4.791-4.17,10.93-2.146,16.424c2.025,5.495,6.618,9.645,12.29,11.105l69.089,17.773l0.009,308.756    c0,11.82,9.581,21.4,21.4,21.4c11.818,0,21.4-9.581,21.4-21.4V319.544h9.24v171.055c0,11.82,9.581,21.4,21.4,21.4    c11.818,0,21.4-9.581,21.4-21.4c0-281.675-0.388-123.435-0.388-308.756l69.089-17.774c5.672-1.46,10.265-5.609,12.289-11.105    C503.32,147.47,502.517,141.331,499.149,136.54z"
         id="path32"
         style="fill-opacity:1;fill:url(#linearGradient4556)" /></g></g><g
     id="g38" /><g
     id="g40" /><g
     id="g42" /><g
     id="g44" /><g
     id="g46" /><g
     id="g48" /><g
     id="g50" /><g
     id="g52" /><g
     id="g54" /><g
     id="g56" /><g
     id="g58" /><g
     id="g60" /><g
     id="g62" /><g
     id="g64" /><g
     id="g66" /></svg>