<?xml version="1.0" encoding="UTF-8" standalone="no"?>
<!-- Generator: Adobe Illustrator 16.0.0, SVG Export Plug-In . SVG Version: 6.00 Build 0)  -->

<svg
   xmlns:dc="http://purl.org/dc/elements/1.1/"
   xmlns:cc="http://creativecommons.org/ns#"
   xmlns:rdf="http://www.w3.org/1999/02/22-rdf-syntax-ns#"
   xmlns:svg="http://www.w3.org/2000/svg"
   xmlns="http://www.w3.org/2000/svg"
   xmlns:xlink="http://www.w3.org/1999/xlink"
   xmlns:sodipodi="http://sodipodi.sourceforge.net/DTD/sodipodi-0.dtd"
   xmlns:inkscape="http://www.inkscape.org/namespaces/inkscape"
   version="1.1"
   id="Capa_1"
   x="0px"
   y="0px"
   width="31.29px"
   height="31.29px"
   viewBox="0 0 31.29 31.29"
   style="enable-background:new 0 0 31.29 31.29;"
   xml:space="preserve"
   sodipodi:docname="header.svg"
   inkscape:version="0.92.1 r15371"><metadata
     id="metadata43"><rdf:RDF><cc:Work
         rdf:about=""><dc:format>image/svg+xml</dc:format><dc:type
           rdf:resource="http://purl.org/dc/dcmitype/StillImage" /></cc:Work></rdf:RDF></metadata><defs
     id="defs41"><linearGradient
       inkscape:collect="always"
       id="linearGradient4524"><stop
         style="stop-color:#00f260;stop-opacity:1"
         offset="0"
         id="stop4520" /><stop
         style="stop-color:#0575e6;stop-opacity:1"
         offset="1"
         id="stop4522" /></linearGradient><linearGradient
       inkscape:collect="always"
       xlink:href="#linearGradient4524"
       id="linearGradient4526"
       x1="-0.39775431"
       y1="15.114661"
       x2="31.422586"
       y2="15.114661"
       gradientUnits="userSpaceOnUse" /></defs><sodipodi:namedview
     pagecolor="#ffffff"
     bordercolor="#666666"
     borderopacity="1"
     objecttolerance="10"
     gridtolerance="10"
     guidetolerance="10"
     inkscape:pageopacity="0"
     inkscape:pageshadow="2"
     inkscape:window-width="1280"
     inkscape:window-height="961"
     id="namedview39"
     showgrid="false"
     inkscape:zoom="7.5423456"
     inkscape:cx="15.645"
     inkscape:cy="15.645"
     inkscape:window-x="-8"
     inkscape:window-y="-8"
     inkscape:window-maximized="1"
     inkscape:current-layer="Capa_1" /><g
     id="g6"
     style="fill-opacity:1;fill:url(#linearGradient4526)"><g
       id="g4"
       style="fill-opacity:1;fill:url(#linearGradient4526)"><path
         d="M18.585,31.226v-1.833h0.577c0.497,0,0.961-0.036,1.395-0.105c0.436-0.072,0.812-0.219,1.131-0.438    s0.576-0.537,0.769-0.948c0.192-0.412,0.287-0.959,0.287-1.643V16.03H8.547v10.229c0,0.683,0.095,1.229,0.287,1.644    c0.192,0.41,0.448,0.729,0.768,0.947c0.32,0.221,0.699,0.365,1.14,0.438c0.442,0.07,0.902,0.106,1.386,0.106h0.577v1.833H0v-1.833    h0.555c0.497,0,0.961-0.036,1.396-0.106c0.434-0.071,0.813-0.217,1.141-0.438c0.326-0.221,0.582-0.537,0.769-0.947    c0.184-0.412,0.275-0.961,0.275-1.644v-21.4c0-0.639-0.096-1.153-0.287-1.545c-0.194-0.392-0.454-0.693-0.78-0.906    C2.742,2.195,2.363,2.056,1.927,1.992c-0.431-0.065-0.89-0.096-1.373-0.096H0V0.063h12.705v1.833h-0.577    c-0.483,0-0.943,0.035-1.386,0.107c-0.44,0.07-0.819,0.217-1.14,0.437C9.283,2.66,9.027,2.976,8.834,3.389    C8.642,3.8,8.547,4.348,8.547,5.03v8.823h14.195V5.03c0-0.683-0.096-1.23-0.287-1.642s-0.448-0.729-0.768-0.948    c-0.32-0.22-0.696-0.366-1.131-0.437c-0.435-0.072-0.897-0.107-1.396-0.107h-0.577V0.063h12.705v1.833h-0.553    c-0.498,0-0.961,0.035-1.396,0.107c-0.434,0.07-0.812,0.217-1.141,0.437c-0.326,0.22-0.582,0.536-0.768,0.948    c-0.186,0.411-0.277,0.959-0.277,1.642v21.442c0,0.64,0.097,1.155,0.287,1.545c0.192,0.392,0.453,0.687,0.779,0.884    c0.326,0.2,0.705,0.331,1.141,0.396c0.434,0.064,0.892,0.096,1.373,0.096h0.556v1.833H18.585z"
         id="path2"
         style="fill-opacity:1;fill:url(#linearGradient4526)" /></g></g><g
     id="g8" /><g
     id="g10" /><g
     id="g12" /><g
     id="g14" /><g
     id="g16" /><g
     id="g18" /><g
     id="g20" /><g
     id="g22" /><g
     id="g24" /><g
     id="g26" /><g
     id="g28" /><g
     id="g30" /><g
     id="g32" /><g
     id="g34" /><g
     id="g36" /></svg>