<?xml version="1.0" encoding="UTF-8" standalone="no"?>
<!-- Generator: Adobe Illustrator 16.0.0, SVG Export Plug-In . SVG Version: 6.00 Build 0)  -->

<svg
   xmlns:dc="http://purl.org/dc/elements/1.1/"
   xmlns:cc="http://creativecommons.org/ns#"
   xmlns:rdf="http://www.w3.org/1999/02/22-rdf-syntax-ns#"
   xmlns:svg="http://www.w3.org/2000/svg"
   xmlns="http://www.w3.org/2000/svg"
   xmlns:xlink="http://www.w3.org/1999/xlink"
   xmlns:sodipodi="http://sodipodi.sourceforge.net/DTD/sodipodi-0.dtd"
   xmlns:inkscape="http://www.inkscape.org/namespaces/inkscape"
   version="1.1"
   id="Capa_1"
   x="0px"
   y="0px"
   width="47.001px"
   height="47.001px"
   viewBox="0 0 47.001 47.001"
   style="enable-background:new 0 0 47.001 47.001;"
   xml:space="preserve"
   sodipodi:docname="hourglass.svg"
   inkscape:version="0.92.1 r15371"><metadata
     id="metadata48"><rdf:RDF><cc:Work
         rdf:about=""><dc:format>image/svg+xml</dc:format><dc:type
           rdf:resource="http://purl.org/dc/dcmitype/StillImage" /></cc:Work></rdf:RDF></metadata><defs
     id="defs46"><linearGradient
       inkscape:collect="always"
       id="linearGradient4530"><stop
         style="stop-color:#00f260;stop-opacity:1"
         offset="0"
         id="stop4526" /><stop
         style="stop-color:#0575e6;stop-opacity:1"
         offset="1"
         id="stop4528" /></linearGradient><linearGradient
       inkscape:collect="always"
       xlink:href="#linearGradient4530"
       id="linearGradient4532"
       x1="0"
       y1="24.297127"
       x2="47.200157"
       y2="24.297127"
       gradientUnits="userSpaceOnUse" /></defs><sodipodi:namedview
     pagecolor="#ffffff"
     bordercolor="#666666"
     borderopacity="1"
     objecttolerance="10"
     gridtolerance="10"
     guidetolerance="10"
     inkscape:pageopacity="0"
     inkscape:pageshadow="2"
     inkscape:window-width="1280"
     inkscape:window-height="961"
     id="namedview44"
     showgrid="false"
     inkscape:zoom="5.0211698"
     inkscape:cx="23.5005"
     inkscape:cy="23.5005"
     inkscape:window-x="-8"
     inkscape:window-y="-8"
     inkscape:window-maximized="1"
     inkscape:current-layer="Capa_1" /><g
     id="g11"
     style="fill-opacity:1;fill:url(#linearGradient4532)"><g
       id="Layer_1_64_"
       style="fill-opacity:1;fill:url(#linearGradient4532)"><g
         id="g8"
         style="fill-opacity:1;fill:url(#linearGradient4532)"><path
           d="M22.432,22.429c0,0.591,0.479,1.067,1.068,1.067s1.068-0.479,1.068-1.067c0.001-1.25,0.445-2.465,1.251-3.421     c1.793-2.126,3.137-4.431,3.988-6.851c0.115-0.327,0.065-0.689-0.135-0.972c-0.201-0.283-0.525-0.451-0.872-0.451H18.199     c-0.347,0-0.672,0.168-0.873,0.451c-0.2,0.283-0.25,0.645-0.135,0.972c0.853,2.42,2.195,4.725,3.988,6.851     C21.986,19.964,22.431,21.18,22.432,22.429z"
           id="path2"
           style="fill-opacity:1;fill:url(#linearGradient4532)" /><path
           d="M24.568,26.71c0-0.59-0.479-1.067-1.068-1.067s-1.068,0.479-1.068,1.067c-0.001,1.542-0.922,3.067-2.593,4.304     c-3.574,2.639-6.249,5.506-7.951,8.52c-0.187,0.332-0.184,0.736,0.009,1.062c0.19,0.329,0.542,0.53,0.922,0.53h21.364     c0.379,0,0.73-0.201,0.922-0.53c0.191-0.326,0.194-0.73,0.008-1.062c-1.701-3.014-4.377-5.881-7.95-8.52     C25.49,29.777,24.569,28.252,24.568,26.71z"
           id="path4"
           style="fill-opacity:1;fill:url(#linearGradient4532)" /><path
           d="M42.192,42.729h-0.639c-0.734-8.313-5.602-14.695-9.386-19.228c3.785-4.532,8.651-10.915,9.388-19.228h0.639     c1.18,0,2.136-0.957,2.136-2.137C44.33,0.956,43.374,0,42.194,0H4.807c-1.18,0-2.136,0.957-2.136,2.136     c0,1.18,0.956,2.137,2.136,2.137h0.639c0.735,8.314,5.601,14.697,9.386,19.228c-3.784,4.532-8.651,10.914-9.387,19.228H4.807     c-1.18,0-2.136,0.955-2.136,2.135c0,1.181,0.956,2.138,2.136,2.138h2.671h32.044h2.672c1.18,0,2.136-0.957,2.136-2.138     C44.33,43.684,43.373,42.729,42.192,42.729z M9.728,42.729c0.803-7.511,5.686-13.295,9.335-17.617l0.195-0.231     c0.672-0.795,0.672-1.959,0-2.755l-0.194-0.23c-3.648-4.323-8.533-10.107-9.336-17.619h27.544     c-0.803,7.512-5.688,13.296-9.336,17.619l-0.193,0.23c-0.672,0.795-0.672,1.959,0,2.755l0.195,0.231     c3.648,4.322,8.531,10.106,9.334,17.617H9.728z"
           id="path6"
           style="fill-opacity:1;fill:url(#linearGradient4532)" /></g></g></g><g
     id="g13" /><g
     id="g15" /><g
     id="g17" /><g
     id="g19" /><g
     id="g21" /><g
     id="g23" /><g
     id="g25" /><g
     id="g27" /><g
     id="g29" /><g
     id="g31" /><g
     id="g33" /><g
     id="g35" /><g
     id="g37" /><g
     id="g39" /><g
     id="g41" /></svg>