<?xml version="1.0" encoding="UTF-8" standalone="no"?>
<!-- Created with Inkscape (http://www.inkscape.org/) -->

<svg
   xmlns:dc="http://purl.org/dc/elements/1.1/"
   xmlns:cc="http://creativecommons.org/ns#"
   xmlns:rdf="http://www.w3.org/1999/02/22-rdf-syntax-ns#"
   xmlns:svg="http://www.w3.org/2000/svg"
   xmlns="http://www.w3.org/2000/svg"
   xmlns:xlink="http://www.w3.org/1999/xlink"
   xmlns:sodipodi="http://sodipodi.sourceforge.net/DTD/sodipodi-0.dtd"
   xmlns:inkscape="http://www.inkscape.org/namespaces/inkscape"
   version="1.1"
   id="svg2"
   width="512"
   height="512"
   viewBox="0 0 512 512"
   sodipodi:docname="62-512.svg"
   inkscape:version="0.92.1 r15371">
  <metadata
     id="metadata8">
    <rdf:RDF>
      <cc:Work
         rdf:about="">
        <dc:format>image/svg+xml</dc:format>
        <dc:type
           rdf:resource="http://purl.org/dc/dcmitype/StillImage" />
        <dc:title></dc:title>
      </cc:Work>
    </rdf:RDF>
  </metadata>
  <defs
     id="defs6">
    <linearGradient
       inkscape:collect="always"
       id="linearGradient4531">
      <stop
         style="stop-color:#00f260;stop-opacity:1"
         offset="0"
         id="stop4527" />
      <stop
         style="stop-color:#0575e6;stop-opacity:1"
         offset="1"
         id="stop4529" />
    </linearGradient>
    <linearGradient
       inkscape:collect="always"
       xlink:href="#linearGradient4531"
       id="linearGradient4533"
       x1="-431.72882"
       y1="80.271179"
       x2="-56.40678"
       y2="80.271179"
       gradientUnits="userSpaceOnUse" />
  </defs>
  <sodipodi:namedview
     pagecolor="#ffffff"
     bordercolor="#666666"
     borderopacity="1"
     objecttolerance="10"
     gridtolerance="10"
     guidetolerance="10"
     inkscape:pageopacity="0"
     inkscape:pageshadow="2"
     inkscape:window-width="1280"
     inkscape:window-height="961"
     id="namedview4"
     showgrid="false"
     inkscape:zoom="0.4609375"
     inkscape:cx="256"
     inkscape:cy="256"
     inkscape:window-x="-8"
     inkscape:window-y="-8"
     inkscape:window-maximized="1"
     inkscape:current-layer="svg2" />
  <g
     id="g4487"
     transform="translate(498.98305,175.72882)"
     style="fill-opacity:1;fill:url(#linearGradient4533)">
    <path
       style="fill:url(#linearGradient4533);fill-opacity:1"
       d="m -399.9096,331.23067 c -6.25757,-1.55325 -11.27063,-4.62563 -15.63209,-9.5805 -7.13226,-8.10268 -7.21881,-8.8691 -6.89083,-61.01715 l 0.28845,-45.86183 2.36756,-4.5 c 1.30216,-2.475 4.67716,-6.65615 7.5,-9.29145 l 5.13244,-4.79145 0.0191,-150.708549 c 0.0189,-149.139411 0.0395,-150.706711 1.9817,-150.531051 1.39423,0.1261 0.56181,-1.03773 -2.87436,-4.01869 l -4.83697,-4.1962 7.65896,-2.2533 c 12.50455,-3.6789 36.58203,-14.49897 60.0516,-26.98632 31.52868,-16.77533 37.62421,-19.71555 46.80958,-22.57891 25.26339,-7.87535 43.79006,-5.59708 56.31195,6.92482 2.43711,2.4371 5.0044,4.4311 5.70511,4.4311 0.7007,0 3.76889,-2.41649 6.8182,-5.36998 8.36742,-8.10448 14.15699,-10.03926 29.85516,-9.97708 10.57705,0.0419 13.85835,0.45987 21.32983,2.71704 10.94784,3.30739 21.50714,8.06565 37.67017,16.97505 28.38501,15.6464 53.643342,27.3988 71.316932,33.18293 l 9.81693,3.21284 -9.31693,7.29007 c -13.70454,10.723174 -32.113342,29.199438 -48.292152,48.469126 -16.11265,19.1909 -26.52514,29.54003 -39.26889,39.02997 -11.51985,8.5785402 -33.86625,19.6519102 -46.75589,23.1690802 -9.52137,2.59807 -11.10084,2.72979 -33,2.75203 -20.87596,0.0212 -23.76901,-0.18704 -31.32716,-2.25486 -32.81756,-8.97847 -57.94123,-26.7401802 -86.56111,-61.1962202 -12.93821,-15.57656 -29.1848,-32.663785 -28.20865,-29.668213 0.32831,1.007484 0.62255,64.907483 0.65387,142.000008 l 0.057,140.168209 4.85309,3.69454 c 3.53649,2.69225 5.75918,5.53526 8.19305,10.47958 l 3.33996,6.78503 v 46.02043 46.02042 l -2.79009,5.6816 c -4.59727,9.36169 -12.8753,15.13943 -23.20991,16.19963 -2.75,0.28211 -6.69449,0.0923 -8.76553,-0.42175 z m 10.26553,-424.272393 c 0,-0.1721 -1.4625,-1.6346 -3.25,-3.25 l -3.25,-2.937091 2.93709,3.25 c 2.73778,3.029455 3.56291,3.709652 3.56291,2.937091 z m -8,-7.032107 c 0,-0.18975 -1.0125,-1.20225 -2.25,-2.25 l -2.25,-1.90498 1.90499,2.25 c 1.79021,2.114441 2.59501,2.705237 2.59501,1.90498 z"
       id="path4495"
       inkscape:connector-curvature="0" />
  </g>
</svg>
