<?xml version="1.0" encoding="UTF-8" standalone="no"?>
<!-- Generator: Adobe Illustrator 16.0.0, SVG Export Plug-In . SVG Version: 6.00 Build 0)  -->

<svg
   xmlns:dc="http://purl.org/dc/elements/1.1/"
   xmlns:cc="http://creativecommons.org/ns#"
   xmlns:rdf="http://www.w3.org/1999/02/22-rdf-syntax-ns#"
   xmlns:svg="http://www.w3.org/2000/svg"
   xmlns="http://www.w3.org/2000/svg"
   xmlns:xlink="http://www.w3.org/1999/xlink"
   xmlns:sodipodi="http://sodipodi.sourceforge.net/DTD/sodipodi-0.dtd"
   xmlns:inkscape="http://www.inkscape.org/namespaces/inkscape"
   version="1.1"
   id="Capa_1"
   x="0px"
   y="0px"
   width="485.213px"
   height="485.212px"
   viewBox="0 0 485.213 485.212"
   style="enable-background:new 0 0 485.213 485.212;"
   xml:space="preserve"
   sodipodi:docname="printer-tool.svg"
   inkscape:version="0.92.1 r15371"><metadata
     id="metadata51"><rdf:RDF><cc:Work
         rdf:about=""><dc:format>image/svg+xml</dc:format><dc:type
           rdf:resource="http://purl.org/dc/dcmitype/StillImage" /></cc:Work></rdf:RDF></metadata><defs
     id="defs49"><linearGradient
       inkscape:collect="always"
       id="linearGradient4532"><stop
         style="stop-color:#00f260;stop-opacity:1"
         offset="0"
         id="stop4528" /><stop
         style="stop-color:#0575e6;stop-opacity:1"
         offset="1"
         id="stop4530" /></linearGradient><linearGradient
       inkscape:collect="always"
       xlink:href="#linearGradient4532"
       id="linearGradient4534"
       x1="0"
       y1="242.606"
       x2="487.26797"
       y2="242.606"
       gradientUnits="userSpaceOnUse" /></defs><sodipodi:namedview
     pagecolor="#ffffff"
     bordercolor="#666666"
     borderopacity="1"
     objecttolerance="10"
     gridtolerance="10"
     guidetolerance="10"
     inkscape:pageopacity="0"
     inkscape:pageshadow="2"
     inkscape:window-width="1280"
     inkscape:window-height="961"
     id="namedview47"
     showgrid="false"
     inkscape:zoom="0.48638533"
     inkscape:cx="591.09413"
     inkscape:cy="242.606"
     inkscape:window-x="-8"
     inkscape:window-y="-8"
     inkscape:window-maximized="1"
     inkscape:current-layer="Capa_1" /><g
     id="g14"
     style="fill-opacity:1;fill:url(#linearGradient4534)"><g
       id="g12"
       style="fill-opacity:1;fill:url(#linearGradient4534)"><path
         d="M121.305,30.327h242.604v60.651h30.327V30.327C394.236,13.595,380.674,0,363.909,0H121.305    c-16.731,0-30.327,13.595-30.327,30.327v60.651h30.327V30.327z"
         id="path2"
         style="fill-opacity:1;fill:url(#linearGradient4534)" /><path
         d="M454.89,121.304H30.328c-16.731,0-30.327,13.591-30.327,30.324v151.629c0,16.764,13.595,30.327,30.327,30.327h60.651    v121.302c0,16.764,13.595,30.326,30.327,30.326h242.604c16.765,0,30.327-13.562,30.327-30.326V333.584h60.653    c16.759,0,30.322-13.563,30.322-30.327V151.628C485.212,134.895,471.648,121.304,454.89,121.304z M363.909,454.886H121.305    v-212.28h242.604V454.886z M424.562,212.282c-16.764,0-30.326-13.564-30.326-30.327c0-16.731,13.562-30.327,30.326-30.327    c16.765,0,30.327,13.595,30.327,30.327C454.89,198.717,441.327,212.282,424.562,212.282z"
         id="path4"
         style="fill-opacity:1;fill:url(#linearGradient4534)" /><rect
         x="151.629"
         y="272.93"
         width="121.304"
         height="30.327"
         id="rect6"
         style="fill-opacity:1;fill:url(#linearGradient4534)" /><rect
         x="151.629"
         y="333.584"
         width="181.958"
         height="30.321"
         id="rect8"
         style="fill-opacity:1;fill:url(#linearGradient4534)" /><rect
         x="151.629"
         y="394.237"
         width="181.958"
         height="30.322"
         id="rect10"
         style="fill-opacity:1;fill:url(#linearGradient4534)" /></g></g><g
     id="g16" /><g
     id="g18" /><g
     id="g20" /><g
     id="g22" /><g
     id="g24" /><g
     id="g26" /><g
     id="g28" /><g
     id="g30" /><g
     id="g32" /><g
     id="g34" /><g
     id="g36" /><g
     id="g38" /><g
     id="g40" /><g
     id="g42" /><g
     id="g44" /></svg>