<?xml version="1.0" encoding="UTF-8" standalone="no"?>
<!-- Generator: Adobe Illustrator 16.0.0, SVG Export Plug-In . SVG Version: 6.00 Build 0)  -->

<svg
   xmlns:dc="http://purl.org/dc/elements/1.1/"
   xmlns:cc="http://creativecommons.org/ns#"
   xmlns:rdf="http://www.w3.org/1999/02/22-rdf-syntax-ns#"
   xmlns:svg="http://www.w3.org/2000/svg"
   xmlns="http://www.w3.org/2000/svg"
   xmlns:xlink="http://www.w3.org/1999/xlink"
   xmlns:sodipodi="http://sodipodi.sourceforge.net/DTD/sodipodi-0.dtd"
   xmlns:inkscape="http://www.inkscape.org/namespaces/inkscape"
   version="1.1"
   id="Capa_1"
   x="0px"
   y="0px"
   width="485.212px"
   height="485.212px"
   viewBox="0 0 485.212 485.212"
   style="enable-background:new 0 0 485.212 485.212;"
   xml:space="preserve"
   sodipodi:docname="printer-picture.svg"
   inkscape:version="0.92.1 r15371"><metadata
     id="metadata49"><rdf:RDF><cc:Work
         rdf:about=""><dc:format>image/svg+xml</dc:format><dc:type
           rdf:resource="http://purl.org/dc/dcmitype/StillImage" /></cc:Work></rdf:RDF></metadata><defs
     id="defs47"><linearGradient
       inkscape:collect="always"
       id="linearGradient4510"><stop
         style="stop-color:#00f260;stop-opacity:0.99497485"
         offset="0"
         id="stop4506" /><stop
         style="stop-color:#0575e6;stop-opacity:1"
         offset="1"
         id="stop4508" /></linearGradient><linearGradient
       inkscape:collect="always"
       xlink:href="#linearGradient4510"
       id="linearGradient4512"
       x1="-2.0559831"
       y1="254.94189"
       x2="489.32397"
       y2="254.94189"
       gradientUnits="userSpaceOnUse" /></defs><sodipodi:namedview
     pagecolor="#ffffff"
     bordercolor="#666666"
     borderopacity="1"
     objecttolerance="10"
     gridtolerance="10"
     guidetolerance="10"
     inkscape:pageopacity="0"
     inkscape:pageshadow="2"
     inkscape:window-width="1280"
     inkscape:window-height="961"
     id="namedview45"
     showgrid="false"
     inkscape:zoom="0.48638533"
     inkscape:cx="-91.491248"
     inkscape:cy="242.606"
     inkscape:window-x="-8"
     inkscape:window-y="-8"
     inkscape:window-maximized="1"
     inkscape:current-layer="Capa_1" /><g
     id="g12"
     style="fill-opacity:1;fill:url(#linearGradient4512)"><g
       id="g10"
       style="fill-opacity:1;fill:url(#linearGradient4512)"><path
         d="M121.312,30.327h242.595v60.651h30.321V30.327C394.229,13.595,380.666,0,363.907,0H121.312    c-16.748,0-30.327,13.595-30.327,30.327v60.651h30.327V30.327z"
         id="path2"
         style="fill-opacity:1;fill:url(#linearGradient4512)" /><path
         d="M454.882,121.304H30.334c-16.748,0-30.327,13.591-30.327,30.324v151.629c0,16.764,13.579,30.327,30.327,30.327h60.651    v121.302c0,16.764,13.579,30.326,30.327,30.326h242.595c16.759,0,30.321-13.562,30.321-30.326V333.584h60.653    c16.76,0,30.322-13.563,30.322-30.327V151.628C485.204,134.895,471.642,121.304,454.882,121.304z M363.907,454.886H121.312    v-212.28h242.595V454.886z M424.551,212.282c-16.76,0-30.322-13.564-30.322-30.327c0-16.731,13.562-30.327,30.322-30.327    c16.765,0,30.331,13.595,30.331,30.327C454.882,198.717,441.315,212.282,424.551,212.282z"
         id="path4"
         style="fill-opacity:1;fill:url(#linearGradient4512)" /><polygon
         points="288.086,333.584 242.614,394.237 197.124,363.906 151.636,424.559 333.575,424.559   "
         id="polygon6"
         style="fill-opacity:1;fill:url(#linearGradient4512)" /><path
         d="M197.124,341.168c12.559,0,22.745-10.188,22.745-22.753c0-12.554-10.186-22.737-22.745-22.737    c-12.554,0-22.743,10.184-22.743,22.737C174.381,330.98,184.57,341.168,197.124,341.168z"
         id="path8"
         style="fill-opacity:1;fill:url(#linearGradient4512)" /></g></g><g
     id="g14" /><g
     id="g16" /><g
     id="g18" /><g
     id="g20" /><g
     id="g22" /><g
     id="g24" /><g
     id="g26" /><g
     id="g28" /><g
     id="g30" /><g
     id="g32" /><g
     id="g34" /><g
     id="g36" /><g
     id="g38" /><g
     id="g40" /><g
     id="g42" /></svg>