<?xml version="1.0" encoding="UTF-8" standalone="no"?>
<!-- Generator: Adobe Illustrator 19.0.0, SVG Export Plug-In . SVG Version: 6.00 Build 0)  -->

<svg
   xmlns:dc="http://purl.org/dc/elements/1.1/"
   xmlns:cc="http://creativecommons.org/ns#"
   xmlns:rdf="http://www.w3.org/1999/02/22-rdf-syntax-ns#"
   xmlns:svg="http://www.w3.org/2000/svg"
   xmlns="http://www.w3.org/2000/svg"
   xmlns:xlink="http://www.w3.org/1999/xlink"
   xmlns:sodipodi="http://sodipodi.sourceforge.net/DTD/sodipodi-0.dtd"
   xmlns:inkscape="http://www.inkscape.org/namespaces/inkscape"
   version="1.1"
   id="Layer_1"
   x="0px"
   y="0px"
   viewBox="0 0 512 512"
   style="enable-background:new 0 0 512 512;"
   xml:space="preserve"
   sodipodi:docname="share.svg"
   inkscape:version="0.92.1 r15371"><metadata
     id="metadata67"><rdf:RDF><cc:Work
         rdf:about=""><dc:format>image/svg+xml</dc:format><dc:type
           rdf:resource="http://purl.org/dc/dcmitype/StillImage" /></cc:Work></rdf:RDF></metadata><defs
     id="defs65"><linearGradient
       id="linearGradient4582"
       inkscape:collect="always"><stop
         id="stop4578"
         offset="0"
         style="stop-color:#00f260;stop-opacity:1" /><stop
         id="stop4580"
         offset="1"
         style="stop-color:#0575e6;stop-opacity:1" /></linearGradient><linearGradient
       id="linearGradient4576"
       inkscape:collect="always"><stop
         id="stop4572"
         offset="0"
         style="stop-color:#00f260;stop-opacity:1" /><stop
         id="stop4574"
         offset="1"
         style="stop-color:#0575e6;stop-opacity:1" /></linearGradient><linearGradient
       id="linearGradient4570"
       inkscape:collect="always"><stop
         id="stop4566"
         offset="0"
         style="stop-color:#00f260;stop-opacity:1" /><stop
         id="stop4568"
         offset="1"
         style="stop-color:#0575e6;stop-opacity:1" /></linearGradient><linearGradient
       id="linearGradient4564"
       inkscape:collect="always"><stop
         id="stop4560"
         offset="0"
         style="stop-color:#00f260;stop-opacity:1" /><stop
         id="stop4562"
         offset="1"
         style="stop-color:#0575e6;stop-opacity:1" /></linearGradient><linearGradient
       inkscape:collect="always"
       id="linearGradient4548"><stop
         style="stop-color:#00f260;stop-opacity:1"
         offset="0"
         id="stop4544" /><stop
         style="stop-color:#0575e6;stop-opacity:1"
         offset="1"
         id="stop4546" /></linearGradient><linearGradient
       inkscape:collect="always"
       xlink:href="#linearGradient4570"
       id="linearGradient4550"
       x1="-4.3389831"
       y1="260.33899"
       x2="514.16949"
       y2="258.16949"
       gradientUnits="userSpaceOnUse" /><linearGradient
       inkscape:collect="always"
       xlink:href="#linearGradient4576"
       id="linearGradient4552"
       x1="-4.3389831"
       y1="260.33899"
       x2="514.16949"
       y2="258.16949"
       gradientUnits="userSpaceOnUse" /><linearGradient
       inkscape:collect="always"
       xlink:href="#linearGradient4582"
       id="linearGradient4554"
       x1="-4.3389831"
       y1="260.33899"
       x2="514.16949"
       y2="258.16949"
       gradientUnits="userSpaceOnUse" /><linearGradient
       inkscape:collect="always"
       xlink:href="#linearGradient4548"
       id="linearGradient4556"
       x1="-4.3389831"
       y1="260.33899"
       x2="514.16949"
       y2="258.16949"
       gradientUnits="userSpaceOnUse" /><linearGradient
       inkscape:collect="always"
       xlink:href="#linearGradient4564"
       id="linearGradient4558"
       x1="-4.3389831"
       y1="260.33899"
       x2="514.16949"
       y2="258.16949"
       gradientUnits="userSpaceOnUse" /></defs><sodipodi:namedview
     pagecolor="#ffffff"
     bordercolor="#666666"
     borderopacity="1"
     objecttolerance="10"
     gridtolerance="10"
     guidetolerance="10"
     inkscape:pageopacity="0"
     inkscape:pageshadow="2"
     inkscape:window-width="1280"
     inkscape:window-height="961"
     id="namedview63"
     showgrid="false"
     inkscape:zoom="0.4609375"
     inkscape:cx="256"
     inkscape:cy="256"
     inkscape:window-x="-8"
     inkscape:window-y="-8"
     inkscape:window-maximized="1"
     inkscape:current-layer="Layer_1" /><g
     id="g6"
     style="fill-opacity:1;fill:url(#linearGradient4558)"><g
       id="g4"
       style="fill-opacity:1;fill:url(#linearGradient4558)"><path
         d="M397.19,0c-50.33,0-91.278,40.947-91.278,91.278c0,50.33,40.947,91.278,91.278,91.278    c50.331,0,91.279-40.947,91.279-91.278C488.468,40.947,447.521,0,397.19,0z M397.19,141.191    c-27.523,0-49.913-22.391-49.913-49.913c0-27.522,22.391-49.913,49.913-49.913c27.523,0,49.914,22.391,49.914,49.913    C447.104,118.8,424.713,141.191,397.19,141.191z"
         id="path2"
         style="fill-opacity:1;fill:url(#linearGradient4558)" /></g></g><g
     id="g12"
     style="fill-opacity:1;fill:url(#linearGradient4556)"><g
       id="g10"
       style="fill-opacity:1;fill:url(#linearGradient4556)"><path
         d="M114.809,164.722c-50.33,0-91.278,40.947-91.278,91.278s40.947,91.278,91.278,91.278S206.087,306.33,206.087,256    S165.14,164.722,114.809,164.722z M114.809,305.913c-27.522,0-49.913-22.391-49.913-49.913s22.391-49.913,49.913-49.913    c27.522,0,49.913,22.391,49.913,49.913C164.722,283.523,142.331,305.913,114.809,305.913z"
         id="path8"
         style="fill-opacity:1;fill:url(#linearGradient4556)" /></g></g><g
     id="g18"
     style="fill-opacity:1;fill:url(#linearGradient4554)"><g
       id="g16"
       style="fill-opacity:1;fill:url(#linearGradient4554)"><path
         d="M397.19,329.445c-50.33,0-91.278,40.947-91.278,91.278S346.859,512,397.19,512c50.331,0,91.279-40.947,91.279-91.278    C488.468,370.392,447.521,329.445,397.19,329.445z M397.19,470.636c-27.523,0-49.913-22.39-49.913-49.913    c0-27.523,22.391-49.913,49.913-49.913c27.523,0,49.914,22.39,49.914,49.913C447.104,448.245,424.713,470.636,397.19,470.636z"
         id="path14"
         style="fill-opacity:1;fill:url(#linearGradient4554)" /></g></g><g
     id="g24"
     style="fill-opacity:1;fill:url(#linearGradient4552)"><g
       id="g22"
       style="fill-opacity:1;fill:url(#linearGradient4552)"><path
         d="M346.891,367.32l-160.722-93.656c-9.869-5.751-22.532-2.412-28.282,7.457c-5.752,9.87-2.413,22.532,7.457,28.283    l160.721,93.656c3.276,1.908,6.857,2.816,10.393,2.816c7.118,0,14.047-3.68,17.89-10.272    C360.099,385.734,356.76,373.072,346.891,367.32z"
         id="path20"
         style="fill-opacity:1;fill:url(#linearGradient4552)" /></g></g><g
     id="g30"
     style="fill-opacity:1;fill:url(#linearGradient4550)"><g
       id="g28"
       style="fill-opacity:1;fill:url(#linearGradient4550)"><path
         d="M354.105,116.386c-5.757-9.865-18.422-13.194-28.287-7.438l-160.487,93.656c-9.865,5.758-13.195,18.422-7.438,28.288    c3.845,6.588,10.768,10.261,17.882,10.261c3.539,0,7.128-0.91,10.405-2.823l160.486-93.656    C356.533,138.916,359.863,126.251,354.105,116.386z"
         id="path26"
         style="fill-opacity:1;fill:url(#linearGradient4550)" /></g></g><g
     id="g32" /><g
     id="g34" /><g
     id="g36" /><g
     id="g38" /><g
     id="g40" /><g
     id="g42" /><g
     id="g44" /><g
     id="g46" /><g
     id="g48" /><g
     id="g50" /><g
     id="g52" /><g
     id="g54" /><g
     id="g56" /><g
     id="g58" /><g
     id="g60" /></svg>