<?xml version="1.0" encoding="UTF-8" standalone="no"?>
<!-- Generator: Adobe Illustrator 19.0.0, SVG Export Plug-In . SVG Version: 6.00 Build 0)  -->

<svg
   xmlns:dc="http://purl.org/dc/elements/1.1/"
   xmlns:cc="http://creativecommons.org/ns#"
   xmlns:rdf="http://www.w3.org/1999/02/22-rdf-syntax-ns#"
   xmlns:svg="http://www.w3.org/2000/svg"
   xmlns="http://www.w3.org/2000/svg"
   xmlns:xlink="http://www.w3.org/1999/xlink"
   xmlns:sodipodi="http://sodipodi.sourceforge.net/DTD/sodipodi-0.dtd"
   xmlns:inkscape="http://www.inkscape.org/namespaces/inkscape"
   version="1.1"
   id="Capa_1"
   x="0px"
   y="0px"
   viewBox="0 0 512.001 512.001"
   style="enable-background:new 0 0 512.001 512.001;"
   xml:space="preserve"
   sodipodi:docname="startup.svg"
   inkscape:version="0.92.1 r15371"><metadata
     id="metadata55"><rdf:RDF><cc:Work
         rdf:about=""><dc:format>image/svg+xml</dc:format><dc:type
           rdf:resource="http://purl.org/dc/dcmitype/StillImage" /></cc:Work></rdf:RDF></metadata><defs
     id="defs53"><linearGradient
       id="linearGradient4554"
       inkscape:collect="always"><stop
         id="stop4550"
         offset="0"
         style="stop-color:#00f260;stop-opacity:1" /><stop
         id="stop4552"
         offset="1"
         style="stop-color:#0575e6;stop-opacity:0.99497485" /></linearGradient><linearGradient
       id="linearGradient4548"
       inkscape:collect="always"><stop
         id="stop4544"
         offset="0"
         style="stop-color:#00f260;stop-opacity:1" /><stop
         id="stop4546"
         offset="1"
         style="stop-color:#0575e6;stop-opacity:0.99497485" /></linearGradient><linearGradient
       inkscape:collect="always"
       id="linearGradient4536"><stop
         style="stop-color:#00f260;stop-opacity:1"
         offset="0"
         id="stop4532" /><stop
         style="stop-color:#0575e6;stop-opacity:0.99497485"
         offset="1"
         id="stop4534" /></linearGradient><linearGradient
       inkscape:collect="always"
       xlink:href="#linearGradient4536"
       id="linearGradient4538"
       x1="-6.5084872"
       y1="266.84796"
       x2="520.67896"
       y2="266.84796"
       gradientUnits="userSpaceOnUse" /><linearGradient
       inkscape:collect="always"
       xlink:href="#linearGradient4554"
       id="linearGradient4540"
       x1="-6.5084872"
       y1="266.84796"
       x2="520.67896"
       y2="266.84796"
       gradientUnits="userSpaceOnUse" /><linearGradient
       inkscape:collect="always"
       xlink:href="#linearGradient4548"
       id="linearGradient4542"
       x1="-6.5084872"
       y1="266.84796"
       x2="520.67896"
       y2="266.84796"
       gradientUnits="userSpaceOnUse" /></defs><sodipodi:namedview
     pagecolor="#ffffff"
     bordercolor="#666666"
     borderopacity="1"
     objecttolerance="10"
     gridtolerance="10"
     guidetolerance="10"
     inkscape:pageopacity="0"
     inkscape:pageshadow="2"
     inkscape:window-width="1280"
     inkscape:window-height="961"
     id="namedview51"
     showgrid="false"
     inkscape:zoom="0.46093662"
     inkscape:cx="256.00049"
     inkscape:cy="256.00049"
     inkscape:window-x="-8"
     inkscape:window-y="-8"
     inkscape:window-maximized="1"
     inkscape:current-layer="Capa_1" /><g
     id="g6"
     style="fill-opacity:1;fill:url(#linearGradient4542)"><g
       id="g4"
       style="fill-opacity:1;fill:url(#linearGradient4542)"><path
         d="M125.271,387.137c-0.555-0.533-1.152-1.003-1.792-1.408c-20.459-19.904-40.192-26.795-58.667-20.459    C16.236,381.91,1.601,487.958,0.087,499.99c-0.384,3.051,1.408,6.059,3.435,8.363c2.027,2.283,5.781,3.563,8.853,3.563    c12.032-1.493,118.08-16.149,134.741-64.725C153.601,428.31,146.241,408.107,125.271,387.137z"
         id="path2"
         style="fill-opacity:1;fill:url(#linearGradient4542)" /></g></g><g
     id="g12"
     style="fill-opacity:1;fill:url(#linearGradient4540)"><g
       id="g10"
       style="fill-opacity:1;fill:url(#linearGradient4540)"><path
         d="M501.335,0.001c-126.976,0-244.757,103.744-322.112,192.128C12.417,193.515,0.129,349.718,0.023,351.318    c-0.235,3.605,1.365,7.083,4.288,9.259c1.877,1.387,4.096,2.091,6.357,2.091c1.259,0,2.539-0.235,3.755-0.683l78.891-29.589    l86.293,86.293l-29.589,78.891c-1.28,3.392-0.725,7.211,1.429,10.112c2.005,2.731,5.184,4.309,8.555,4.309    c0.235,0,0.448,0,0.704-0.021c1.579-0.107,157.781-12.395,159.168-179.179c88.384-77.355,192.128-195.157,192.128-322.133    C512.001,4.779,507.223,0.001,501.335,0.001z M341.335,234.667c-35.285,0-64-28.715-64-64s28.715-64,64-64    c35.285,0,64,28.715,64,64S376.62,234.667,341.335,234.667z"
         id="path8"
         style="fill-opacity:1;fill:url(#linearGradient4540)" /></g></g><g
     id="g18"
     style="fill-opacity:1;fill:url(#linearGradient4538)"><g
       id="g16"
       style="fill-opacity:1;fill:url(#linearGradient4538)"><circle
         cx="341.335"
         cy="170.667"
         r="42.667"
         id="circle14"
         style="fill-opacity:1;fill:url(#linearGradient4538)" /></g></g><g
     id="g20" /><g
     id="g22" /><g
     id="g24" /><g
     id="g26" /><g
     id="g28" /><g
     id="g30" /><g
     id="g32" /><g
     id="g34" /><g
     id="g36" /><g
     id="g38" /><g
     id="g40" /><g
     id="g42" /><g
     id="g44" /><g
     id="g46" /><g
     id="g48" /></svg>