<svg xmlns="http://www.w3.org/2000/svg" xmlns:xlink="http://www.w3.org/1999/xlink" viewBox="254 1131 132.8 34.468"><defs><style>.a,.i{fill:#fff}.b{fill:#222}.c{fill:#6086a9}.d{fill:#466e93}.e{fill:url(#a)}.f{opacity:.1}.g{fill:#faac18}.h{fill:#f7941d}.i{opacity:.35}.j{fill:#162331}.k{fill:#fdecb2}.l{fill:url(#b)}.m{fill:url(#c)}.n{fill:url(#d)}</style><linearGradient id="a" y1=".495" x2=".999" y2=".495" gradientUnits="objectBoundingBox"><stop offset="0" stop-color="#6c91b0"/><stop offset=".5" stop-color="#193a62"/><stop offset="1" stop-color="#6c91b0"/></linearGradient><linearGradient id="b" y1=".498" x2="1.001" y2=".498" gradientUnits="objectBoundingBox"><stop offset="0" stop-color="#92bcda"/><stop offset=".153" stop-color="#739ec2"/><stop offset=".487" stop-color="#245184"/><stop offset=".5" stop-color="#214e82"/><stop offset=".513" stop-color="#245184"/><stop offset=".847" stop-color="#739ec2"/><stop offset="1" stop-color="#92bcda"/></linearGradient><linearGradient id="c" x1=".001" y1=".502" x2="1.001" y2=".502" gradientUnits="objectBoundingBox"><stop offset="0" stop-color="#5992ca"/><stop offset="1" stop-color="#b2d4eb"/></linearGradient><linearGradient id="d" x1="1" y1=".502" x2="-.001" y2=".502" xlink:href="#c"/></defs><path class="a" d="M294.196 1157.117v-6.276a5.238 5.238 0 0 0-.519-2.775 1.776 1.776 0 0 0-1.556-.726 2.252 2.252 0 0 0-1.4.441 2.692 2.692 0 0 0-.934 1.245 7.175 7.175 0 0 0-.337 2.515v5.575h-3.06v-5.99a8.313 8.313 0 0 0-.233-2.334 2.13 2.13 0 0 0-.726-1.089 1.807 1.807 0 0 0-1.141-.337 2.327 2.327 0 0 0-1.426.441 2.769 2.769 0 0 0-.934 1.274 8.118 8.118 0 0 0-.311 2.619v5.42h-3.007v-12.269h3.06v1.4a5.009 5.009 0 0 1 1.74-1.245 5.064 5.064 0 0 1 2.1-.415 3.7 3.7 0 0 1 2.049.571 4.163 4.163 0 0 1 1.5 1.686 5.2 5.2 0 0 1 1.763-1.686 5.089 5.089 0 0 1 2.334-.571 4.307 4.307 0 0 1 2.256.6 3.628 3.628 0 0 1 1.426 1.582 8.139 8.139 0 0 1 .442 3.108v7.235zm16.363-2.93a5.942 5.942 0 0 1-2.334 2.334 6.4 6.4 0 0 1-3.267.86 6.032 6.032 0 0 1-4.46-1.867 6.46 6.46 0 0 1 .259-9.284 6.046 6.046 0 0 1 4.227-1.66 6.518 6.518 0 0 1 3.242.856 6.184 6.184 0 0 1 2.36 2.334 6.258 6.258 0 0 1 .856 3.19 6.745 6.745 0 0 1-.882 3.242zm-3.138-5.757a3.187 3.187 0 0 0-2.386-.985 3.13 3.13 0 0 0-2.36.985 3.548 3.548 0 0 0-.963 2.541 3.552 3.552 0 0 0 .934 2.567 3.349 3.349 0 0 0 4.746 0 3.656 3.656 0 0 0 .96-2.567 3.531 3.531 0 0 0-.934-2.541zm13.355 8.687v-5.42a12.906 12.906 0 0 0-.207-2.853 2.12 2.12 0 0 0-.674-1.089 1.857 1.857 0 0 0-1.219-.389 2.213 2.213 0 0 0-1.582.622 3.424 3.424 0 0 0-.934 1.712 16.469 16.469 0 0 0-.13 2.541v4.875h-3.06v-12.265h3.06v1.245a6.985 6.985 0 0 1 1.893-1.193 4.5 4.5 0 0 1 1.737-.337 4.146 4.146 0 0 1 3.06 1.245 4.442 4.442 0 0 1 1.115 3.19v8.065h-3.06v.052zm15.871 2.749a6.138 6.138 0 0 1-5 2 8.579 8.579 0 0 1-3.034-.467 5.524 5.524 0 0 1-3.345-3.449h3.475a2.485 2.485 0 0 0 1.115.778 4.649 4.649 0 0 0 1.66.259 4.224 4.224 0 0 0 1.971-.389 2.327 2.327 0 0 0 1.063-.985 4.8 4.8 0 0 0 .311-2.049 4.853 4.853 0 0 1-1.717 1.117 5.368 5.368 0 0 1-2 .389 5.54 5.54 0 0 1-4.149-1.815 6.132 6.132 0 0 1-1.634-4.434 6.323 6.323 0 0 1 1.712-4.694 5.449 5.449 0 0 1 5.861-1.193 6.679 6.679 0 0 1 1.893 1.3v-1.4h3.06v10.442a6.887 6.887 0 0 1-1.245 4.59zm-2.593-11.485a3.367 3.367 0 0 0-2.411-1.011 3.175 3.175 0 0 0-2.36 1.037 3.468 3.468 0 0 0-.985 2.464 3.341 3.341 0 0 0 1.014 2.46 3.286 3.286 0 0 0 2.412.985 3.013 3.013 0 0 0 2.334-.96 3.4 3.4 0 0 0 .934-2.49 3.4 3.4 0 0 0-.938-2.485zm17.323 5.809a5.941 5.941 0 0 1-2.334 2.334 6.4 6.4 0 0 1-3.268.857 6.032 6.032 0 0 1-4.46-1.867 6.46 6.46 0 0 1 .259-9.284 6.046 6.046 0 0 1 4.227-1.66 6.518 6.518 0 0 1 3.242.856 6.184 6.184 0 0 1 2.36 2.334 6.258 6.258 0 0 1 .856 3.19 6.748 6.748 0 0 1-.882 3.242zm-3.165-5.76a3.187 3.187 0 0 0-2.386-.985 3.129 3.129 0 0 0-2.36.985 3.547 3.547 0 0 0-.96 2.541 3.552 3.552 0 0 0 .934 2.567 3.349 3.349 0 0 0 4.746 0 3.655 3.655 0 0 0 .96-2.567 3.531 3.531 0 0 0-.934-2.541z"/><path class="b" d="M357.808 1157.403c-1.763 0-3.89-.622-3.89-4.3v-13.956h3.06v13.38c0 1.4.571 1.815 1.4 1.815h.415v2.775a2.016 2.016 0 0 1-.986.285zm11.151-.285v-1.4a5.867 5.867 0 0 1-1.789 1.271 4.952 4.952 0 0 1-1.971.389 5.391 5.391 0 0 1-4.071-1.841 6.5 6.5 0 0 1-1.789-4.564 6.707 6.707 0 0 1 1.712-4.616 5.336 5.336 0 0 1 4.045-1.789 4.907 4.907 0 0 1 2.049.415 5.537 5.537 0 0 1 1.788 1.264v-1.4h3.06v12.24h-3.034v.026zm-.83-8.739a3.187 3.187 0 0 0-2.386-.985 3.1 3.1 0 0 0-2.36 1.011 3.74 3.74 0 0 0-.986 2.593 3.63 3.63 0 0 0 .986 2.567 3.289 3.289 0 0 0 4.746 0 3.7 3.7 0 0 0 .96-2.619 3.5 3.5 0 0 0-.96-2.567zm16.934 7.157a5.54 5.54 0 0 1-4.123 1.841 4.791 4.791 0 0 1-1.919-.389 6.542 6.542 0 0 1-1.841-1.271v1.4h-3.06v-16.856h3.06v5.986a6.174 6.174 0 0 1 1.841-1.271 5.029 5.029 0 0 1 2.075-.415 5.336 5.336 0 0 1 4.045 1.789 6.466 6.466 0 0 1 1.66 4.616 6.525 6.525 0 0 1-1.737 4.564zm-2.256-7.131a3.1 3.1 0 0 0-2.36-1.011 3.186 3.186 0 0 0-2.386.985 3.567 3.567 0 0 0-.96 2.567 3.586 3.586 0 0 0 .96 2.619 3.289 3.289 0 0 0 4.746 0 3.607 3.607 0 0 0 .96-2.593 3.776 3.776 0 0 0-.96-2.567z"/><path class="c" d="M266.655 1164.638v-.958h1.66v.96a.819.819 0 0 1-.83.83.836.836 0 0 1-.83-.83z"/><path class="d" d="M262.039 1164.638v-.958h1.66v.96a.819.819 0 0 1-.83.83.853.853 0 0 1-.83-.83z"/><path class="c" d="M257.423 1164.638v-.958h1.66v.96a.819.819 0 0 1-.83.83.853.853 0 0 1-.83-.83z"/><path class="e" d="M269.922 1162.641l-.752 1.115h-12.629l-.7-1.115z"/><path class="f" d="M270.285 1162.096l-.752 1.115h-13.329l-.7-1.115z"/><path class="g" d="M254.47 1154.602v-14.678a8.114 8.114 0 0 1 7.465-7.809.671.671 0 0 0 .441-.311 5.666 5.666 0 0 0 .337-.7.186.186 0 0 1 .337 0c.078.207.233.467.337.7a.609.609 0 0 0 .441.311 8.09 8.09 0 0 1 7.442 7.809v14.678z"/><path class="h" d="M267.041 1139.95v12.707h.026v.233a1.162 1.162 0 0 0 1.174 1.167h1.5a1.162 1.162 0 0 0 1.167-1.167v-12.762a7.986 7.986 0 0 0-7.21-7.75c-.415-.026-.7-.856-.7-.856a1.748 1.748 0 0 0 .467 1.737 8.329 8.329 0 0 1 3.576 6.691z"/><path class="i" d="M262.869 1134.322a6.457 6.457 0 1 1-6.457 6.457 6.458 6.458 0 0 1 6.457-6.457z"/><path class="j" d="M268.004 1149.935c-1.011 0-1.323.389-1.323 1.141 0 1.271 1.556 2.749 1.556 5.057a2.892 2.892 0 0 1-3.164 3.086h-1.011v-2.049h.441c.8 0 1.063-.467 1.063-1.219 0-1.712-.934-3.242-.934-4.538s.441-1.919 1.971-2.256a2.331 2.331 0 0 1-1.97-2.645c0-1.271.934-2.308.934-4.02a1.219 1.219 0 0 0-1.323-1.349h-.908v-1.581a2.957 2.957 0 0 1 4.279 2.515c0 2.282-.96 4.045-.96 5.316 0 .726.311 1.037 1.323 1.037h.7v1.5zm-5.6-8.791h-.8a1.219 1.219 0 0 0-1.328 1.348c0 1.712.934 2.775.934 4.02a2.411 2.411 0 0 1-2.075 2.645c1.556.337 2.075.934 2.075 2.256 0 1.271-.934 2.827-.934 4.538 0 .752.259 1.219 1.063 1.219h.441v2.049h-1.011a2.892 2.892 0 0 1-3.164-3.086c0-2.308 1.556-3.786 1.556-5.057 0-.726-.259-1.141-1.271-1.141h-.828v-1.529h.83c1.01 0 1.27-.313 1.27-1.039 0-1.271-.96-3.034-.96-5.316a2.951 2.951 0 0 1 4.201-2.545v1.637z"/><path class="k" d="M260.353 1132.767a8.341 8.341 0 0 0-4.279 7.105v13.848a.3.3 0 0 1-.311.311h-.389a.343.343 0 0 1-.337-.337v-13.64a7.853 7.853 0 0 1 5.316-7.287"/><path class="l" d="M271.064 1155.561a3.073 3.073 0 0 0-.13.83v5.861a.819.819 0 0 1-.83.83H255.66a.819.819 0 0 1-.83-.83v-5.887a4.326 4.326 0 0 0-.13-.8 2.23 2.23 0 0 0-.7-.96h17.738a2.292 2.292 0 0 0-.674.96z"/><path class="m" d="M270.908 1158.388h-5.472a.83.83 0 1 1 0-1.66h5.472v1.66z"/><path class="n" d="M254.83 1156.723h5.471a.83.83 0 1 1 0 1.66h-5.471v-1.66z"/></svg>