<svg xmlns="http://www.w3.org/2000/svg" xmlns:xlink="http://www.w3.org/1999/xlink" viewBox="24 2704 1156 650"><defs><style>.a,.e{fill:#fff;}.a{stroke:#95989a;}.b{clip-path:url(#a);}.c{fill:#ff6c39;}.d{fill:#45b6c9;}.f,.g{fill:none;}.g{stroke:#ff6c39;stroke-miterlimit:10;stroke-width:4.668px;}</style><clipPath id="a"><rect class="a" width="1156" height="650" transform="translate(2222 3821)"/></clipPath></defs><g class="b" transform="translate(-2198 -1117)"><g transform="translate(2311.042 3767.596)"><path class="c" d="M818.529,163.3l-56.946-58.439,8.8-8.754,57.246,58.5Z"/><path class="c" d="M869.282,251.755,743.328,122.542l9.1-8.689L878.446,242.766Z"/><rect class="c" width="81.519" height="12.564" transform="matrix(0.699, 0.716, -0.716, 0.699, 679.849, 184.754)"/><rect class="c" width="12.565" height="81.511" transform="matrix(-0.715, 0.699, -0.699, -0.715, 718.437, 261.006)"/><rect class="c" width="81.517" height="12.564" transform="translate(697.801 166.928) rotate(45.677)"/><rect class="c" width="180.497" height="12.565" transform="matrix(0.699, 0.716, -0.716, 0.699, 734.139, 131.56)"/><rect class="c" width="180.501" height="12.564" transform="translate(715.909 149.238) rotate(45.677)"/><path class="d" d="M939.028,227.991,768.661,53.4,657.641,161.98l-52.574,2.4-1.612,3.1-92.547,170.9,262.737,141.93,92.184-170.669,1.612-3.1-3.219-5.4ZM771.105,458.753,700.315,326.76l149.214-12.81-78.424,144.8ZM565.6,264.006l3.785-7.332,39.34-73,71.09,132.057L530.3,328.476Zm232.367,41.9-14.685,1.206-9.757-9.954c.728-.468,1.158-1,1.887-1.473a18.863,18.863,0,0,0,.426-26.561,27.206,27.206,0,0,0-4.572-3.5,18.456,18.456,0,0,0-21.988,3.072,18.862,18.862,0,0,0-.426,26.561c.3.065.233.365.533.429l-14.353,14.135,1.3,1.223-3.555.484-16.141-16.669,45.374-44.413,45.415,46.533ZM743.8,309.847l17.164-16.975,14.07,14.652-31,2.688Zm9.444-18.963a13.58,13.58,0,0,1-3.7-8.956,12.84,12.84,0,0,1,3.81-8.894,12.646,12.646,0,0,1,14.881-2.106,11.3,11.3,0,0,1,2.97,2.212,13.578,13.578,0,0,1,3.7,8.956,11.578,11.578,0,0,1-3.81,8.895,8.084,8.084,0,0,1-1.887,1.472l-8.222-8.367-7.207,7.217C753.482,291.249,753.545,290.949,753.249,290.884Zm-66.654,36.978,69.043,128.479L540.87,340.488ZM768.258,71.189,921.18,227.884l-75.536,73.621-28.109,2.374,7.143-6.918-63.159-64.489-63.63,62.092,17.978,18.321-22.393,2.044L633.359,203.123Zm-140.845,120.3-7.99-15.215,24.724-1.226Z"/><path class="e" d="M240.514,302.662,50.593,458.416,241.541,691.4,431.761,535.709Z"/><path class="d" d="M443.4,536.98,241.783,291.022,38.888,457.447,240.507,703.4Zm-23.645-2.3L242.81,679.759,62.3,459.387,239.61,314.069Z"/><rect class="c" width="183.264" height="18.694" transform="matrix(-0.773, 0.634, -0.634, -0.773, 383.108, 526.011)"/><rect class="c" width="183.279" height="18.695" transform="translate(358.064 495.101) rotate(140.665)"/><rect class="c" width="183.264" height="18.694" transform="matrix(-0.773, 0.634, -0.634, -0.773, 332.645, 464.376)"/><rect class="c" width="183.264" height="18.694" transform="matrix(-0.773, 0.634, -0.634, -0.773, 307.406, 433.527)"/><rect class="c" width="185.103" height="18.694" transform="matrix(-0.773, 0.634, -0.634, -0.773, 283.435, 401.632)"/><rect class="c" width="184.49" height="18.694" transform="matrix(-0.773, 0.634, -0.634, -0.773, 257.849, 370.922)"/><path class="d" d="M165.742,89.218l32.777,204.654,168.919-27.039L334.661,62.179ZM354.959,257.857,207.5,281.395,177.921,98.13,325.385,74.592Z"/><path class="c" d="M290.732,237.349l.194-.9c.389-1.8.389-1.8-.484-3.555l-.468-.728a6.7,6.7,0,0,1-.574-1.693,4.885,4.885,0,0,1,1.573-4.362l.794-.769c1.523-1.237,1.523-1.237,1.677-3.4l.194-.9a5.662,5.662,0,0,1,4.4-4.377l.963-.1c1.928-.21,1.928-.21,3.514-1.747l.729-.469a5.392,5.392,0,0,1,6.145-.863l.834.494c1.667.989,1.667.989,3.958.545l.963-.105a4.709,4.709,0,0,1,5.366,2.732l.469.728a8.338,8.338,0,0,0,.873,1.758A60.273,60.273,0,0,0,329.24,208.7c-4.4-2.836-11.161-4.928-20.106-5.612-8.581-.92-16.068-2.542-16.068-2.542-1.134-.559-1.437-7.837-1.437-7.837l-7.941.473c-.234-.365-1.632-6.938-1.632-6.938,6-3.089,5.238-15.483,5.238-15.483,4.363,1.573,5.307-8.571,5.307-8.571,2.453-14.206-4.252-12.21-4.252-12.21.645-10.208-2.788-24.75-2.788-24.75-7.45-26.386-43.626-15.728-48.359-5.465-16.259,5.569-4.056,31.732-4.056,31.732l3.6,7.992c-5.062,4.548-.555,8.346.5,13.593,1.5,7.537,6.045,5.386,6.045,5.386,2.26,12.719,10.671,12.975,10.671,12.975,2.4,7.733,1.267,7.174,1.267,7.174l-7.108.967a50.5,50.5,0,0,1,.6,7.343c-6.2,3.987-7.458,4.028-13.653,8.015-11.66,7.507-16.294,11.519-16.294,11.519-.364.234-.794.768-1.158,1a69.616,69.616,0,0,0,51.453,18.679l16.572-2.679a53.211,53.211,0,0,0,6.105-2.125,6.454,6.454,0,0,1-.81-2.057A2.6,2.6,0,0,1,290.732,237.349Z"/><path class="c" d="M323.184,226.511a1.127,1.127,0,0,0-.1-.963,3.242,3.242,0,0,0-1.707-2.252c-3.1-1.612-2.566-1.183-4.143-4.033a3.359,3.359,0,0,0-3.4-1.677h0c-3.254.549-2.656.678-5.756-.934-.534-.429-1.5-.325-2.1-.454a3.055,3.055,0,0,0-1.758.874c-2.381,2.306-2.016,2.071-5.271,2.62h0a3.691,3.691,0,0,0-2.746,2.54c-.414,3.36-.285,2.761-2.666,5.066a2.979,2.979,0,0,0-.884,2.631c-.065.3.17.664.4,1.028,1.577,2.851,1.408,2.187.993,5.546a1.126,1.126,0,0,0,.1.963,3.243,3.243,0,0,0,1.707,2.251c3.1,1.612,2.63.884,4.143,4.034a3.362,3.362,0,0,0,3.4,1.677h0c3.254-.549,2.655-.679,5.756.934.533.429,1.5.325,2.1.454a3.057,3.057,0,0,0,1.758-.874c2.381-2.306,1.717-2.137,5.271-2.621h0a3.691,3.691,0,0,0,2.746-2.54c.414-3.36.285-2.76,2.666-5.066a2.979,2.979,0,0,0,.884-2.631c.065-.3-.17-.664-.4-1.027C322.6,229.206,322.769,229.871,323.184,226.511Zm-15.59,12.613-7.372-5.047,2.212-2.97,4.4,2.836,6.765-9.509,2.97,2.211Z"/><rect class="e" width="320.848" height="415.845" transform="matrix(-0.997, -0.082, 0.082, -0.997, 640.702, 672.778)"/><path class="d" d="M592.712,230.06l2.378-28.333-21.549-1.848s-19.552-58.8-42.664-60.673l-19.687-1.759c-23.111-1.875-51.943,53.022-51.943,53.022L438.9,188.879l-2.378,28.333-85.3-7.2L313.5,664.666l341.023,28.14,37.719-454.655ZM519.3,156.45c12.968.93,22.4,12.382,21.472,25.351s-12.382,22.4-25.35,21.472-22.4-12.382-21.472-25.351C495.245,164.719,506.4,155.221,519.3,156.45ZM632.87,607.524l-48.438,36.85-12-1.035,3.568-42.5,56.965,4.822Zm1.348-16.326-71.132-6.012-4.823,56.965-227.327-18.86,32.073-383.756,71.132,6.012-1.189,14.166,156.494,12.913,1.19-14.166,71.132,6.012L634.218,591.2Z"/><path class="d" d="M372.416,297.388l-4.822,56.965,56.965,4.822,4.822-56.965Zm42.175,49.907-35.116-2.908,2.908-35.117,35.116,2.908Z"/><path class="d" d="M364.326,396.917,359.5,453.883l56.965,4.822,4.823-56.965ZM406.5,446.824l-35.117-2.908,2.908-35.116,35.117,2.907Z"/><path class="d" d="M357.125,482.216,352.3,539.181,409.267,544l4.822-56.965ZM399.3,532.126l-35.117-2.908,2.907-35.117,35.117,2.908Z"/><line class="f" x2="156.497" y2="12.914" transform="translate(456.525 318.755)"/><rect class="c" width="185.399" height="14.403" transform="matrix(0.997, 0.082, -0.082, 0.997, 443.423, 303.243)"/><line class="f" x2="156.433" y2="13.213" transform="translate(454.146 347.089)"/><rect class="c" width="185.398" height="14.402" transform="matrix(0.997, 0.082, -0.082, 0.997, 439.813, 346.053)"/><line class="f" x2="156.196" y2="12.849" transform="translate(448.434 418.286)"/><rect class="c" width="185.398" height="14.403" transform="matrix(0.997, 0.082, -0.082, 0.997, 435.341, 402.748)"/><line class="f" x2="50.781" y2="4.422" transform="translate(436.511 445.804)"/><rect class="c" width="60.37" height="14.403" transform="matrix(0.997, 0.082, -0.082, 0.997, 431.815, 445.377)"/><line class="f" x2="170.663" y2="14.103" transform="translate(441.233 503.584)"/><rect class="c" width="199.803" height="14.403" transform="matrix(0.997, 0.082, -0.082, 0.997, 428.203, 488.075)"/><line class="f" x2="127.796" y2="10.767" transform="translate(438.854 531.918)"/><rect class="c" width="156.9" height="14.402" transform="matrix(0.997, 0.082, -0.082, 0.997, 424.719, 530.859)"/><path class="g" d="M385.716,319.048l15.539,18.514,35.692-29.991"/><path class="g" d="M378.37,419.03l15.8,18.571,35.748-30.253"/><path class="c" d="M618.794,469.951l-33.071.671.672,33.071,155,147.11,30.253-31.07Z"/></g></g></svg>