<svg xmlns="http://www.w3.org/2000/svg" xmlns:xlink="http://www.w3.org/1999/xlink" viewBox="48 29 213.065 55.3"><defs><style>.a,.h{fill:#fff}.b{fill:#f9cb62}.c{fill:#6086a9}.d{fill:#466e93}.e{fill:url(#a)}.f{opacity:.1}.g{fill:#f6a13b}.h{opacity:.35}.i{fill:#162331}.j{fill:#fdecb2}.k{fill:url(#b)}.l{fill:url(#c)}.m{fill:url(#d)}</style><linearGradient id="a" y1=".495" x2=".999" y2=".495" gradientUnits="objectBoundingBox"><stop offset="0" stop-color="#6c91b0"/><stop offset=".5" stop-color="#193a62"/><stop offset="1" stop-color="#6c91b0"/></linearGradient><linearGradient id="b" y1=".498" x2="1.001" y2=".498" gradientUnits="objectBoundingBox"><stop offset="0" stop-color="#92bcda"/><stop offset=".153" stop-color="#739ec2"/><stop offset=".487" stop-color="#245184"/><stop offset=".5" stop-color="#214e82"/><stop offset=".513" stop-color="#245184"/><stop offset=".847" stop-color="#739ec2"/><stop offset="1" stop-color="#92bcda"/></linearGradient><linearGradient id="c" x1=".001" y1=".502" x2="1.001" y2=".502" gradientUnits="objectBoundingBox"><stop offset="0" stop-color="#5992ca"/><stop offset="1" stop-color="#b2d4eb"/></linearGradient><linearGradient id="d" x1="1" y1=".502" x2="-.001" y2=".502" xlink:href="#c"/></defs><path class="a" d="M112.486 70.903V60.834c0-2.205-.291-3.661-.832-4.452a2.85 2.85 0 0 0-2.5-1.165 3.613 3.613 0 0 0-2.247.707 4.32 4.32 0 0 0-1.5 2 11.512 11.512 0 0 0-.541 4.036v8.945h-4.9v-9.613a13.338 13.338 0 0 0-.374-3.745 3.418 3.418 0 0 0-1.165-1.747 2.9 2.9 0 0 0-1.831-.541 3.733 3.733 0 0 0-2.288.707 4.442 4.442 0 0 0-1.5 2.039 13.024 13.024 0 0 0-.5 4.2v8.7h-4.822V51.223h4.91v2.242a8.036 8.036 0 0 1 2.788-2 8.125 8.125 0 0 1 3.37-.666 5.931 5.931 0 0 1 3.287.915 6.679 6.679 0 0 1 2.413 2.7 8.334 8.334 0 0 1 2.829-2.7 8.165 8.165 0 0 1 3.745-.915 6.909 6.909 0 0 1 3.62.957 5.821 5.821 0 0 1 2.288 2.538 13.059 13.059 0 0 1 .707 4.993v11.616zm26.253-4.7a9.534 9.534 0 0 1-3.744 3.745 10.276 10.276 0 0 1-5.243 1.373 9.678 9.678 0 0 1-7.156-3 9.853 9.853 0 0 1-2.954-7.281 9.86 9.86 0 0 1 3.37-7.614 9.7 9.7 0 0 1 6.786-2.661 10.458 10.458 0 0 1 5.2 1.373 9.921 9.921 0 0 1 3.788 3.745 10.04 10.04 0 0 1 1.373 5.118 10.822 10.822 0 0 1-1.414 5.2zm-5.03-9.238a5.114 5.114 0 0 0-3.823-1.581 5.021 5.021 0 0 0-3.791 1.581 5.692 5.692 0 0 0-1.539 4.077 5.7 5.7 0 0 0 1.5 4.119 5.374 5.374 0 0 0 7.614 0 5.866 5.866 0 0 0 1.54-4.119 5.665 5.665 0 0 0-1.5-4.077zm21.427 13.938v-8.7a20.707 20.707 0 0 0-.333-4.577 3.4 3.4 0 0 0-1.082-1.747 2.98 2.98 0 0 0-1.956-.624 3.551 3.551 0 0 0-2.538 1 5.493 5.493 0 0 0-1.5 2.746 26.422 26.422 0 0 0-.208 4.077V70.9h-4.91V51.223h4.91v2a11.207 11.207 0 0 1 3.037-1.914 7.226 7.226 0 0 1 2.788-.541 6.652 6.652 0 0 1 4.91 2 7.127 7.127 0 0 1 1.789 5.118v12.94h-4.907v.083zm25.463 4.41c-1.789 2.122-4.41 3.2-8.03 3.2a13.764 13.764 0 0 1-4.868-.749 8.862 8.862 0 0 1-5.367-5.534h5.575a3.987 3.987 0 0 0 1.789 1.248 7.459 7.459 0 0 0 2.663.416 6.776 6.776 0 0 0 3.162-.624 3.733 3.733 0 0 0 1.706-1.581 7.7 7.7 0 0 0 .5-3.287 7.786 7.786 0 0 1-2.743 1.793 8.613 8.613 0 0 1-3.2.624 8.888 8.888 0 0 1-6.657-2.912 9.838 9.838 0 0 1-2.621-7.115 10.145 10.145 0 0 1 2.738-7.527 8.742 8.742 0 0 1 9.4-1.914 10.716 10.716 0 0 1 3.037 2.08v-2.25h4.91v16.768c.041 3.328-.666 5.783-2 7.364zm-4.161-18.432a5.4 5.4 0 0 0-3.869-1.623 5.093 5.093 0 0 0-3.783 1.665 5.565 5.565 0 0 0-1.581 3.953 5.361 5.361 0 0 0 1.622 3.953 5.272 5.272 0 0 0 3.869 1.581 4.835 4.835 0 0 0 3.742-1.545 5.463 5.463 0 0 0 1.5-3.994 5.463 5.463 0 0 0-1.5-3.994zm27.793 9.32a9.531 9.531 0 0 1-3.744 3.745 10.276 10.276 0 0 1-5.243 1.373 9.678 9.678 0 0 1-7.156-3 9.852 9.852 0 0 1-2.954-7.281 9.86 9.86 0 0 1 3.37-7.614 9.7 9.7 0 0 1 6.782-2.659 10.457 10.457 0 0 1 5.2 1.373 9.921 9.921 0 0 1 3.786 3.745 10.04 10.04 0 0 1 1.373 5.118 10.827 10.827 0 0 1-1.415 5.2zm-5.076-9.236a5.112 5.112 0 0 0-3.828-1.581 5.02 5.02 0 0 0-3.786 1.581 5.691 5.691 0 0 0-1.54 4.077 5.7 5.7 0 0 0 1.5 4.119 5.374 5.374 0 0 0 7.614 0 5.864 5.864 0 0 0 1.54-4.119 5.665 5.665 0 0 0-1.5-4.077z"/><path class="b" d="M214.549 71.361c-2.829 0-6.241-1-6.241-6.907V42.071h4.91v21.468c0 2.247.915 2.912 2.247 2.912h.666v4.452a3.235 3.235 0 0 1-1.581.458zm17.891-.458v-2.246a9.412 9.412 0 0 1-2.871 2.039 7.944 7.944 0 0 1-3.162.624 8.649 8.649 0 0 1-6.532-2.954 10.423 10.423 0 0 1-2.871-7.323 10.761 10.761 0 0 1 2.746-7.406 8.561 8.561 0 0 1 6.49-2.871 7.874 7.874 0 0 1 3.287.666 8.883 8.883 0 0 1 2.871 2.039v-2.247h4.91v19.638h-4.868v.042zm-1.331-14.021a5.113 5.113 0 0 0-3.833-1.581 4.972 4.972 0 0 0-3.786 1.623 6 6 0 0 0-1.581 4.161 5.824 5.824 0 0 0 1.581 4.119 5.277 5.277 0 0 0 7.614 0 5.928 5.928 0 0 0 1.539-4.2 5.62 5.62 0 0 0-1.539-4.119zm27.167 11.483a8.888 8.888 0 0 1-6.615 2.954 7.686 7.686 0 0 1-3.079-.624 10.5 10.5 0 0 1-2.954-2.039v2.247h-4.91V43.859h4.91v9.612a9.9 9.9 0 0 1 2.954-2.039 8.069 8.069 0 0 1 3.329-.666 8.561 8.561 0 0 1 6.49 2.871 10.374 10.374 0 0 1 2.663 7.406 10.468 10.468 0 0 1-2.788 7.323zm-3.62-11.442a4.972 4.972 0 0 0-3.78-1.622 5.112 5.112 0 0 0-3.828 1.581 5.723 5.723 0 0 0-1.54 4.119 5.753 5.753 0 0 0 1.54 4.2 5.277 5.277 0 0 0 7.614 0 5.787 5.787 0 0 0 1.54-4.161 6.058 6.058 0 0 0-1.54-4.119z"/><path class="c" d="M68.304 82.968v-1.537h2.663v1.537a1.314 1.314 0 0 1-1.331 1.331 1.341 1.341 0 0 1-1.332-1.331z"/><path class="d" d="M60.898 82.968v-1.537h2.663v1.537a1.314 1.314 0 0 1-1.328 1.332 1.369 1.369 0 0 1-1.331-1.331z"/><path class="c" d="M53.492 82.968v-1.537h2.662v1.537a1.314 1.314 0 0 1-1.331 1.332 1.369 1.369 0 0 1-1.331-1.332z"/><path class="e" d="M73.546 79.765l-1.207 1.789H52.078l-1.124-1.789z"/><path class="f" d="M74.124 78.891l-1.2 1.789H51.536l-1.123-1.789z"/><path class="b" d="M48.752 66.867V43.315c.038-6.488 5.28-11.813 11.979-12.521a1.077 1.077 0 0 0 .707-.5 9.09 9.09 0 0 0 .541-1.123.3.3 0 0 1 .541 0c.125.333.374.749.541 1.123a.977.977 0 0 0 .707.5c6.7.707 11.9 6.033 11.941 12.523v23.55z"/><path class="g" d="M68.928 43.359v20.384h.042v.374a1.864 1.864 0 0 0 1.873 1.876h2.413a1.864 1.864 0 0 0 1.872-1.872V43.643A12.813 12.813 0 0 0 63.561 31.21c-.666-.042-1.123-1.373-1.123-1.373s-.5 1.872.749 2.788a13.363 13.363 0 0 1 5.742 10.734z"/><path class="h" d="M62.23 34.331a10.36 10.36 0 1 1-10.36 10.36 10.361 10.361 0 0 1 10.36-10.36z"/><path class="i" d="M70.468 59.378c-1.623 0-2.122.624-2.122 1.831 0 2.039 2.5 4.41 2.5 8.113 0 2.7-1.581 4.951-5.076 4.951h-1.626v-3.287h.707c1.29 0 1.706-.749 1.706-1.955 0-2.746-1.5-5.2-1.5-7.281s.707-3.079 3.162-3.62c-2.5-.541-3.162-2.164-3.162-4.244 0-2.039 1.5-3.7 1.5-6.449a1.956 1.956 0 0 0-2.122-2.164h-1.456v-2.538c3.745-1.914 6.865 1.5 6.865 4.036 0 3.661-1.539 6.491-1.539 8.529 0 1.165.5 1.664 2.122 1.664h1.123v2.413zm-8.987-14.105h-1.289a1.956 1.956 0 0 0-2.122 2.164c0 2.746 1.5 4.452 1.5 6.449a3.869 3.869 0 0 1-3.329 4.244c2.5.541 3.329 1.5 3.329 3.62 0 2.039-1.5 4.535-1.5 7.281 0 1.207.416 1.955 1.706 1.955h.707v3.287H58.86c-3.495 0-5.076-2.247-5.076-4.951 0-3.7 2.5-6.074 2.5-8.113 0-1.165-.416-1.831-2.039-1.831h-1.333v-2.455h1.33c1.623 0 2.039-.5 2.039-1.664 0-2.039-1.539-4.868-1.539-8.529 0-2.5 3.037-5.866 6.74-4.077v2.62z"/><path class="j" d="M58.193 31.835a13.382 13.382 0 0 0-6.865 11.4V65.45a.481.481 0 0 1-.5.5h-.623a.551.551 0 0 1-.541-.541V43.526a12.6 12.6 0 0 1 8.529-11.691"/><path class="k" d="M75.377 68.406a4.931 4.931 0 0 0-.208 1.331v9.4a1.314 1.314 0 0 1-1.331 1.331H50.663a1.314 1.314 0 0 1-1.331-1.331v-9.441a6.94 6.94 0 0 0-.208-1.29A3.578 3.578 0 0 0 48 66.867h28.459a3.677 3.677 0 0 0-1.082 1.539z"/><path class="l" d="M75.128 72.942h-8.779a1.331 1.331 0 1 1 0-2.663h8.779v2.663z"/><path class="m" d="M49.332 70.274h8.779a1.331 1.331 0 1 1 0 2.663h-8.779v-2.663z"/></svg>